<svg xmlns="http://www.w3.org/2000/svg" xml:space="preserve" id="svg" viewBox="0 0 199.48 46"><metadata>© 2025 Chris Caron. All rights reserved. Apprise logo and associated marks. https://github.com/caronc/apprise</metadata><defs id="defs"><linearGradient id="SVGCXPeteLK" x1="22.753" x2="108.22" y1="45.053" y2="193.08" gradientTransform="translate(143.37 -5.927)scale(.09886)" gradientUnits="userSpaceOnUse"><stop offset="0" stop-color="#5a62c3"/><stop offset=".5" stop-color="#4d55bd"/><stop offset="1" stop-color="#3940ab"/></linearGradient><linearGradient id="SVGuySfwdaH" x1="128" x2="128" y2="256" gradientTransform="translate(184.95 145.35)scale(.0481)" gradientUnits="userSpaceOnUse"><stop offset="0" stop-color="#2aabee"/><stop offset="1" stop-color="#229ed9"/></linearGradient><marker id="Triangle-7" markerHeight="1" markerWidth="1" orient="auto-start-reverse" overflow="visible" preserveAspectRatio="xMidYMid" viewBox="0 0 1 1"><path fill="context-stroke" fill-rule="evenodd" stroke="context-stroke" stroke-width=".5pt" d="M2.885 0-1.44 2.5v-5z"/></marker></defs><g id="layer"><path id="rect" fill="none" stroke-width=".169" d="M0 0h199.48v46H0z"/><g stroke-width=".084"><path fill="#de1c59" d="M147.65 40.623c0 .618-.503 1.122-1.121 1.122s-1.122-.504-1.122-1.122c0-.617.505-1.122 1.122-1.122h1.121zm.566 0c0-.617.504-1.122 1.122-1.122.617 0 1.122.504 1.122 1.122v2.809c0 .617-.505 1.122-1.122 1.122a1.125 1.125 0 0 1-1.122-1.122z"/><path fill="#35c5f0" d="M149.33 36.119a1.124 1.124 0 0 1-1.122-1.122c0-.617.504-1.121 1.122-1.121.617 0 1.122.504 1.122 1.122v1.121zm0 .565c.617 0 1.122.504 1.122 1.122s-.505 1.122-1.122 1.122h-2.809c-.617 0-1.122-.504-1.122-1.122s.505-1.122 1.122-1.122z"/><path fill="#2eb57d" d="M153.84 37.806c0-.618.504-1.122 1.121-1.122.618 0 1.122.504 1.122 1.122s-.504 1.122-1.122 1.122h-1.121zm-.565 0c0 .618-.505 1.122-1.122 1.122a1.124 1.124 0 0 1-1.122-1.122v-2.809c0-.617.504-1.121 1.122-1.121.617 0 1.122.504 1.122 1.122z"/><path fill="#ebb02e" d="M152.15 42.31c.617 0 1.122.504 1.122 1.122 0 .617-.505 1.122-1.122 1.122a1.125 1.125 0 0 1-1.122-1.122V42.31zm0-.565a1.124 1.124 0 0 1-1.122-1.122c0-.617.504-1.122 1.122-1.122h2.808c.618 0 1.122.504 1.122 1.122s-.504 1.122-1.122 1.122z"/></g><g stroke="#eee" stroke-width=".5" marker-end="url(#Triangle-7)"><path stroke-width="1.1" marker-end="none" d="M34.212 25.225h115.47"/><path d="m149.28 25.121 25.116-10.284"/><path d="m149.39 25.22 25.144-.041"/><path d="m149.55 25.438 24.662 11.331"/><path d="m137.72 25.158 8.569 9.999"/><path d="m121.1 25.417 6.623 7.728"/><path d="m97.31 25.178 6.623 7.728"/><path d="m69.719 25.438 6.623 7.728"/><path d="m44.59 24.919 6.623 7.728"/><path d="m146.89 25.124 11.321-12.728"/><path d="m129.89 25.128 9.818-11.038"/><path d="m111.71 25.394 8.777-9.869"/><path d="m89.639 25.304 8.778-9.869"/><path d="m62.176 25.216 8.778-9.869"/><path d="m36.01 25.086 8.778-9.869"/></g><path fill="#5865f2" stroke-width=".051" d="M187.52 19.83c-.854-.4-1.758-.684-2.687-.845-.116.21-.252.491-.345.715a9.9 9.9 0 0 0-2.978 0 8 8 0 0 0-.349-.715 10.6 10.6 0 0 0-2.69.847c-1.701 2.57-2.162 5.077-1.931 7.548a10.7 10.7 0 0 0 3.296 1.689q.402-.551.706-1.163a7 7 0 0 1-1.111-.54q.139-.105.272-.216c2.144 1.002 4.473 1.002 6.591 0q.134.111.272.215a7 7 0 0 1-1.114.542q.306.614.706 1.163a10.7 10.7 0 0 0 3.299-1.69c.27-2.865-.462-5.348-1.937-7.55m-6.686 6.03c-.643 0-1.171-.6-1.171-1.332s.517-1.333 1.171-1.333c.655 0 1.183.6 1.171 1.333.001.731-.516 1.332-1.171 1.332m4.328 0c-.643 0-1.171-.6-1.171-1.332s.517-1.333 1.171-1.333c.655 0 1.183.6 1.172 1.333 0 .731-.517 1.332-1.172 1.332"/><path fill="url(#SVGuySfwdaH)" stroke-width=".048" d="M182.97 31.165a6.157 6.157 0 1 0 .001 12.313 6.157 6.157 0 0 0-.001-12.313m2.516 3.706c.051 0 .166.012.24.072.061.05.077.118.086.166.007.048.018.157.01.242-.093.974-.493 3.336-.697 4.426-.085.462-.255.617-.42.632-.358.033-.63-.235-.976-.462-.542-.356-.846-.577-1.373-.923-.608-.4-.214-.622.132-.982.091-.094 1.667-1.527 1.696-1.657.004-.016.007-.075-.029-.107s-.088-.022-.127-.013q-.082.017-2.596 1.715-.368.254-.668.248c-.219-.005-.642-.124-.957-.227-.384-.125-.692-.192-.665-.405q.02-.165.459-.34 2.692-1.172 3.589-1.547c1.71-.71 2.065-.834 2.297-.838z"/><path fill="#3a76f0" stroke-width=".042" d="m117.01 2.21.122.492a4.9 4.9 0 0 0-1.36.562l-.26-.434c.465-.281.97-.49 1.498-.62m2.597 0-.122.492a4.9 4.9 0 0 1 1.36.562l.262-.434a5.4 5.4 0 0 0-1.5-.62m-5.932 2.456c-.281.465-.49.97-.62 1.498l.493.122c.117-.479.307-.937.562-1.36zm-.27 2.797q0-.37.055-.735l-.502-.076a5.4 5.4 0 0 0 0 1.622l.502-.077a5 5 0 0 1-.055-.734m7.7 4.633-.26-.435c-.422.255-.88.444-1.358.562l.122.492a5.4 5.4 0 0 0 1.496-.62m2.107-4.632q0 .37-.055.734l.502.077a5.4 5.4 0 0 0 0-1.622l-.502.076q.055.365.055.735m.349 1.298-.492-.121a4.9 4.9 0 0 1-.562 1.359l.435.262c.281-.466.49-.971.619-1.5m-4.518 3.55a5 5 0 0 1-1.469 0l-.076.502a5.4 5.4 0 0 0 1.621 0zm3.213-1.94a5 5 0 0 1-1.039 1.039l.301.408a5.4 5.4 0 0 0 1.146-1.143zm-1.039-6.856a5 5 0 0 1 1.039 1.04l.408-.305a5.4 5.4 0 0 0-1.143-1.143zm-6.856 1.04a5 5 0 0 1 1.039-1.04l-.304-.408a5.4 5.4 0 0 0-1.143 1.143zm8.581.111-.435.26c.255.422.444.88.562 1.358l.492-.122a5.4 5.4 0 0 0-.619-1.496m-5.368-2.052a5 5 0 0 1 1.469 0l.076-.501a5.4 5.4 0 0 0-1.621 0zm-2.953 9.339-1.047.244.244-1.047-.494-.116-.244 1.047a.507.507 0 0 0 .61.61l1.046-.24zm-1.191-1.372.494.115.169-.726a4.9 4.9 0 0 1-.545-1.33l-.493.121q.167.675.499 1.286zm2.367 1.1-.726.169.115.493.534-.124c.406.22.838.389 1.286.499l.122-.492a4.9 4.9 0 0 1-1.327-.549zm2.511-8.614a4.398 4.398 0 0 0-3.72 6.735l-.422 1.803 1.803-.422a4.397 4.397 0 1 0 2.339-8.116"/><path fill="#eee" stroke-width=".39" d="M189.06 6.513h-10.928a.78.78 0 0 0-.78.781v7.805a.78.78 0 0 0 .78.78h10.928a.8.8 0 0 0 .553-.227.78.78 0 0 0 .228-.553V7.294a.78.78 0 0 0-.781-.78m-.601 8.585h-9.679l2.733-2.825-.563-.542-2.818 2.915v-6.76l4.851 4.828a.78.78 0 0 0 1.101 0l4.976-4.948v6.829l-2.872-2.872-.55.55zm-9.815-7.805h9.785l-4.895 4.866z"/><path fill="#eee" stroke-width=".196" d="M184.43 9.818c0 .165.047.23.17.23.273 0 .448-.348.448-.927 0-.886-.646-1.31-1.451-1.31-.829 0-1.583.557-1.583 1.607 0 1.003.66 1.55 1.672 1.55.344 0 .574-.039.927-.156l.076.315c-.348.113-.72.146-1.008.146-1.327 0-2.039-.73-2.039-1.856 0-1.135.824-1.907 1.959-1.907 1.182 0 1.808.706 1.808 1.573 0 .735-.23 1.296-.955 1.296-.33 0-.547-.133-.575-.425-.085.325-.311.425-.616.425-.411 0-.755-.316-.755-.952 0-.64.302-1.036.843-1.036.288 0 .467.113.546.291l.137-.249h.396zm-.579-.622a.346.346 0 0 0-.353-.367c-.174 0-.367.14-.367.556 0 .329.146.513.367.513.155 0 .353-.098.353-.373z"/><g stroke-width=".047"><path fill="#5059c9" d="M165.68 6.224h3.089a.53.53 0 0 1 .529.53v2.813c0 1.072-.87 1.942-1.942 1.942h-.01a1.94 1.94 0 0 1-1.942-1.942V6.5a.276.276 0 0 1 .276-.276m3.34-1.808a1.25 1.25 0 0 1-1.252 1.252 1.252 1.252 0 1 1 1.252-1.252"/><path fill="#7b83eb" d="M165.68 3.86a1.807 1.807 0 1 1-3.086-1.278 1.808 1.808 0 0 1 3.086 1.278m.61 2.364h-5.1a.524.524 0 0 0-.51.535v3.21a3.14 3.14 0 0 0 3.06 3.21 3.14 3.14 0 0 0 3.06-3.21v-3.21a.524.524 0 0 0-.51-.535"/><path d="M164.02 6.224v4.498a.51.51 0 0 1-.509.51h-2.584a3.4 3.4 0 0 1-.245-1.263v-3.21a.52.52 0 0 1 .509-.535z" opacity=".1"/><path d="M163.74 6.224V11a.515.515 0 0 1-.509.509h-2.175a2.8 2.8 0 0 1-.228-.556 3.4 3.4 0 0 1-.148-.985v-3.21a.523.523 0 0 1 .509-.534z" opacity=".2"/><path d="M163.74 6.224v4.22a.514.514 0 0 1-.509.51h-2.403a3.4 3.4 0 0 1-.148-.986v-3.21a.523.523 0 0 1 .509-.534z" opacity=".2"/><path d="M163.46 6.224v4.22a.514.514 0 0 1-.509.51h-2.125a3.4 3.4 0 0 1-.148-.986v-3.21a.523.523 0 0 1 .509-.534z" opacity=".2"/><path d="M164.02 4.786v.876q-.07.005-.139.006c-.069.001-.092-.003-.139-.006a1.81 1.81 0 0 1-1.619-1.385h1.388a.51.51 0 0 1 .509.51" opacity=".1"/></g><path stroke-width=".047" d="M163.74 5.064v.598a1.81 1.81 0 0 1-1.53-1.107h1.021a.51.51 0 0 1 .509.51" opacity=".2"/><path stroke-width=".047" d="M163.74 5.064v.598a1.81 1.81 0 0 1-1.53-1.107h1.021a.51.51 0 0 1 .509.51" opacity=".2"/><g stroke-width=".047"><path d="M163.46 5.064v.554a1.81 1.81 0 0 1-1.252-1.063h.743a.51.51 0 0 1 .509.51" opacity=".2"/><path fill="url(#SVGCXPeteLK)" d="M157.85 4.555h5.099a.51.51 0 0 1 .51.51v5.1a.51.51 0 0 1-.51.51h-5.099a.51.51 0 0 1-.51-.51v-5.1a.51.51 0 0 1 .51-.51"/><path fill="#fff" d="M161.74 6.496h-1.019v2.776h-.65V6.496h-1.014v-.538h2.683z"/></g><g stroke-width=".039"><path fill="#3088d4" d="M136.76 40.309c-.145.747-1.301 1.566-2.629 1.724-.693.083-1.374.159-2.101.125-1.189-.054-2.127-.283-2.127-.283q0 .173.021.329c.155 1.173 1.163 1.243 2.119 1.276a6.1 6.1 0 0 0 1.824-.238l.039.872s-.674.363-1.876.429a7.8 7.8 0 0 1-2.445-.27c-2.078-.55-2.436-2.766-2.491-5.015-.016-.667-.007-1.297-.007-1.823 0-2.299 1.507-2.973 1.507-2.973.759-.349 2.063-.496 3.418-.507h.033c1.355.011 2.659.158 3.418.507 0 0 1.507.674 1.507 2.973 0 0 .019 1.696-.21 2.874"/><path fill="#fff" d="M135.19 37.613v2.784h-1.103v-2.702c0-.57-.24-.859-.719-.859-.53 0-.796.343-.796 1.021v1.479h-1.096v-1.479c0-.678-.266-1.021-.796-1.021-.479 0-.719.289-.719.859v2.702h-1.103v-2.784q0-.854.436-1.355.45-.504 1.181-.506c.564 0 .992.217 1.274.65l.275.461.275-.461c.282-.433.71-.65 1.274-.65q.731.002 1.181.506.436.501.436 1.355"/></g><path fill="#1185fe" stroke-width=".041" d="M107.17 35.937c1.203.903 2.497 2.734 2.972 3.717.475-.983 1.769-2.814 2.972-3.717.868-.652 2.274-1.156 2.274.449 0 .32-.184 2.691-.291 3.076-.375 1.339-1.74 1.68-2.954 1.474 2.122.36 2.662 1.557 1.496 2.754-2.214 2.272-3.182-.57-3.43-1.299-.046-.133-.067-.196-.067-.143-.001-.053-.022.01-.067.143-.248.728-1.217 3.57-3.431 1.299-1.166-1.197-.626-2.393 1.496-2.754-1.214.206-2.579-.135-2.953-1.474-.108-.385-.292-2.756-.292-3.076 0-1.605 1.407-1.1 2.275-.449"/><path fill="#178f84" id="mark" stroke-width="1.266" d="M8.208 20.321c.837 3.477 1.147 7.265 1.595 10.815l5.586-.798c-.882 1.44-1.769 2.88-2.608 4.344-.345.602-.966 1.33-1.016 2.04-.09 1.264 2.495 2.791 3.526 1.914.585-.498.973-1.431 1.352-2.092.733-1.277 1.52-2.518 2.223-3.812.297-.547.837-2.053 1.49-2.2.65-.145 1.585.275 2.213.427 2.357.568 4.685 1.61 6.738 2.888 1.015.632 2.556 2.01 3.577.568.34-.482.22-1.052.146-1.595-.158-1.154-.355-2.302-.507-3.457-.615-4.678-1.409-9.332-2.039-14.007-.178-1.32-.17-3.017-.659-4.255-.201-.51-.733-.842-1.279-.843-1.068-.001-1.623 1.134-2.261 1.818a29 29 0 0 1-4.513 3.963c-4.131 2.914-8.667 3.662-13.564 4.281m18.97-1.95.976 9.309h-6.738c.908-2.168 2.446-4.214 3.686-6.206.608-.975 1.2-2.357 2.077-3.103M7.055 31.313c-.272-3.435-.876-6.985-1.507-10.372-3.044.963-3.95 5.047-2.544 7.624.854 1.564 2.349 2.418 4.05 2.748z"/><g color="#000"><path fill="#3d9f89" d="M145.06 2.835h-8.712c-.599 0-1.089.462-1.089 1.028l.008 6.961-.163.937 2.332-.704h7.624c.599 0 1.089-.462 1.089-1.028V3.863c0-.566-.49-1.028-1.089-1.028"/><path fill="#fff" d="M136.19 2.052c-.908 0-1.686.714-1.686 1.622v.001l.009 7.593-.228 1.682 3.1-.824h7.707c.908 0 1.686-.715 1.686-1.623V3.674c0-.907-.777-1.622-1.685-1.622h-.001zm0 1.145h8.903c.319 0 .54.232.54.477v6.83c0 .244-.221.482-.541.476h-7.875l-1.575.476.016-.092-.009-7.69c0-.245.221-.477.541-.477"/><g fill="#fff" stroke-width=".132"><path d="M137.12 8.841v-.849l1.784-.943a1 1 0 0 1 .167-.066q.086-.03.154-.044l.147-.014v-.059a1 1 0 0 1-.147-.029l-.154-.037a2 2 0 0 1-.167-.073l-1.784-.944v-.855l2.757 1.5v.913z"/><path d="M136.98 4.663v1.231l1.87.99.012.004-.012.005-1.87.99v1.223l.202-.11 2.84-1.546V6.32zm.286.528 2.47 1.346v.695l-2.47 1.344v-.473l1.697-.898.002-.002a.7.7 0 0 1 .14-.055h.003l.005-.002q.076-.026.133-.038l.271-.027v-.37l-.13-.014a1 1 0 0 1-.126-.026h-.004l-.005-.002-.143-.034a1 1 0 0 1-.144-.063h-.002l-1.697-.9zm3.714 3.354h2.945v.796h-2.945z"/><path d="M140.84 8.382v1.122h3.23V8.382zm.285.327h2.66v.47h-2.66z"/></g></g><g id="apprise-api-icon"><g id="waves" fill="#888"><path id="wave-l" d="M92.338 5.218v.013c.367.052.752.232 1.08.403.373.195.73.437.997.776.749.954.725 2.513 0 3.47-.363.478-.948.784-1.487.991-.192.075-.399.16-.603.188.06.026.126.002.189 0q.28-.009.552-.073c.8-.184 1.562-.722 1.891-1.525.426-1.037.38-2.388-.373-3.26a2.8 2.8 0 0 0-1.053-.754 3.2 3.2 0 0 0-1.193-.229"/><path id="wave-r" d="M92.464 5.218v.013c.367.052.752.232 1.08.403.373.195.73.437.997.776.749.954.725 2.513 0 3.47-.363.478-.948.784-1.487.991-.192.075-.399.16-.603.188.06.026.126.002.189 0q.28-.009.552-.073c.8-.184 1.562-.722 1.891-1.525.426-1.037.38-2.388-.373-3.26a2.8 2.8 0 0 0-1.053-.754 3.2 3.2 0 0 0-1.193-.229"/></g><path id="sub-wordmark" fill="#18998c" d="m100.78 11.464.134.411h.431l-.705-2.04h-.464l-.725 2.04h.428l.137-.411zm-.115-.35h-.531l.265-.797zm1.365.034h.524c.374 0 .615-.266.615-.68 0-.408-.232-.632-.657-.632h-.901v2.04h.419zm0-.35v-.613h.392c.224 0 .327.098.327.305 0 .21-.103.308-.327.308zm1.802-.962h-.42v2.04h.42z"/><path fill="#eee" id="wordmark" d="m100.71 9.072-.139.402c.52.217 1.624.34 1.624-.5q.002-.15-.052-.29c-.167-.411-.672-.335-.947-.599-.101-.097-.092-.244.041-.31.111-.055.27-.045.389-.025.112.019.211.07.319.1l.139-.388c-.47-.25-1.468-.242-1.471.486a.7.7 0 0 0 .029.25c.165.458.734.336.992.666.114.146-.009.297-.161.334-.26.064-.527-.028-.763-.126m-6.343-1.68V9.6h.5v-.75c.307 0 .663.003.93-.176.35-.235.38-.872.04-1.134-.404-.314-1.006-.183-1.47-.146m1.832 0V9.6h.5v-.75c.308 0 .663.003.93-.176.35-.235.38-.872.04-1.134-.404-.314-1.006-.183-1.47-.146m1.832 0V9.6h.5v-.82c.07 0 .183-.021.246.015.264.152.293.591.512.782.04.035.109.022.158.022h.402c-.101-.35-.383-.612-.541-.93.5-.096.53-.86.18-1.13-.403-.311-.996-.183-1.457-.146m1.9-.028v2.234h.501V7.365zm2.416 0v2.234h1.485v-.43h-.985v-.527h.888v-.417h-.888v-.43h.985v-.43zm-7.48 1.055v-.653c.168 0 .37-.028.527.048.185.089.23.394.054.52-.16.114-.397.085-.582.085m1.833 0v-.653c.168 0 .37-.028.527.048.185.089.23.394.054.52-.16.114-.397.085-.581.085m1.832-.042v-.61c.174 0 .382-.027.54.06.176.097.185.374.015.48-.156.099-.38.07-.555.07"/><path fill="#eee" d="M90.185 7.316c.131.544.18 1.137.25 1.693l.874-.125c-.138.225-.277.45-.408.68-.054.094-.151.208-.16.32-.013.197.391.437.553.3.091-.079.152-.225.212-.328.114-.2.237-.395.348-.597.046-.086.13-.322.233-.344.101-.023.248.042.346.066.37.09.734.252 1.055.452.16.1.4.315.56.09.053-.076.035-.165.023-.25-.025-.181-.055-.36-.08-.542-.096-.732-.22-1.46-.319-2.192-.027-.207-.026-.473-.103-.667a.22.22 0 0 0-.2-.131c-.167 0-.254.177-.354.284a4.5 4.5 0 0 1-.706.62c-.647.457-1.357.574-2.124.67m2.97-.304.153 1.457h-1.055c.142-.34.383-.66.577-.972.095-.152.188-.369.325-.486m-3.15 2.027a16 16 0 0 0-.236-1.624c-.477.15-.619.79-.398 1.194.133.244.367.378.634.43"/><path id="cloud" fill="#18998c" d="M105.76 5.897a6.2 6.2 0 0 0-3.913-3.562 6.4 6.4 0 0 0-3.63-.041 5.3 5.3 0 0 0-2.776 2.151 3.7 3.7 0 0 0-.768-.734 4.08 4.08 0 0 0-2.586-.692 3.33 3.33 0 0 0-1.919 1.101 3.47 3.47 0 0 0-.833 1.751 2.9 2.9 0 0 0-1.127.192 2.75 2.75 0 0 0-1.25.935 3.05 3.05 0 0 0-.585 1.452 4.17 4.17 0 0 0 .676 2.91q.302.431.692.785c.17.158.365.287.576.383a.3.3 0 0 0 .416-.116.28.28 0 0 0-.091-.317 2 2 0 0 1-.575-.492 4 4 0 0 1-.418-.618 3.58 3.58 0 0 1-.374-2.385c.063-.467.25-.908.54-1.277a2.2 2.2 0 0 1 .71-.592c.28-.149.586-.24.901-.266q.51-.057 1.018 0a.233.233 0 0 0 .275-.192.225.225 0 0 0-.216-.25 7 7 0 0 0-.676-.134c.169-.483.455-.916.833-1.26a2.5 2.5 0 0 1 1.51-.7c.42-.046.843 0 1.243.133.42.122.817.317 1.168.575.477.316.784.832.835 1.402a.275.275 0 1 0 .54 0 2.17 2.17 0 0 0-.257-1.201.2.2 0 0 0 .084-.075 4.68 4.68 0 0 1 2.619-1.827 5.53 5.53 0 0 1 3.178.225 5.45 5.45 0 0 1 3.337 3.078 6.75 6.75 0 0 1 .4 4.672q-.144.498-.4.95a1.66 1.66 0 0 1-.692.642.28.28 0 0 0-.125.367c.069.132.23.187.366.126.306-.143.577-.35.793-.608a4.1 4.1 0 0 0 .658-1.26 7.3 7.3 0 0 0-.158-5.231"/></g><path fill="#007fda" stroke-width=".337" d="M48.167 2.052q-.153-.001-.302.146l-1.24 1.244c-.106.104-.204.214-.316.313-.14.12-.183.261-.18.442.01.63.004 1.259.004 1.887v1.96c0 .048.002.1.014.147.039.15.135.177.244.066q.885-.883 1.766-1.766l2-2c.192-.196.192-.408 0-.601l-1.691-1.692q-.147-.147-.3-.146zm3.246 3.25c-.1 0-.2.047-.292.138l-1.7 1.701c-.193.193-.192.402 0 .593l1.688 1.693c.199.198.41.198.606.001l1.638-1.64a.7.7 0 0 0 .193-.275v-.15a.7.7 0 0 0-.193-.276l-1.647-1.649a.42.42 0 0 0-.293-.137zm-6.774.148c-.039.007-.065.042-.093.073l-1.69 1.707a.29.29 0 0 0 .001.432l.918.92.793.797c.076.076.148.061.187-.039a.5.5 0 0 0 .03-.163l.001-1.73h-.002v-1.74a1 1 0 0 0-.01-.112c-.007-.062-.032-.116-.094-.14a.1.1 0 0 0-.041-.006zm3.555 3.074a.4.4 0 0 0-.295.143l-1.696 1.693c-.195.197-.195.406 0 .6q.821.82 1.638 1.64c.08.08.161.16.273.195h.15a.63.63 0 0 0 .268-.181q.825-.829 1.652-1.654c.193-.193.191-.407-.002-.602l-1.696-1.694a.4.4 0 0 0-.292-.14"/><g stroke-width=".391"><path fill="#3dbcf3" fill-rule="evenodd" d="M76.207 44.334v-3.723h-.96a.261.261 0 0 1-.184-.444l5.172-5.299a.32.32 0 0 1 .456-.003l.003.003 2.7 2.753v-.509a.216.216 0 0 1 .214-.217h.897c.12 0 .215.098.215.217v1.87l1.149 1.188c.1.103.098.267-.004.369a.26.26 0 0 1-.18.074h-.965v3.723a.216.216 0 0 1-.214.218h-8.084a.216.216 0 0 1-.215-.22"/><path fill="#fff" d="M82.702 39.298a1.11 1.11 0 0 0-1.106 1.118q0 .227.088.436l-.806.815V39.19a1.106 1.106 0 1 0-.83 0v2.478l-.806-.815c.058-.138.088-.286.088-.436a1.106 1.106 0 1 0-.675 1.029l1.392 1.408v1.699h.83v-1.7l1.392-1.407q.206.088.43.088a1.118 1.118 0 0 0 0-2.235zm-4.478 1.565a.447.447 0 1 1-.01-.895.447.447 0 0 1 .01.895m2.241-2.264a.447.447 0 1 1-.01-.894.447.447 0 0 1 .01.894m2.239 2.264a.447.447 0 1 1 .313-.131.44.44 0 0 1-.315.13z"/></g><g fill-rule="evenodd" clip-rule="evenodd"><path fill="#3ace01" d="M69.116 2.052h5.902a2.05 2.05 0 0 1 2.045 2.045V10a2.05 2.05 0 0 1-2.045 2.045h-5.902A2.05 2.05 0 0 1 67.071 10V4.097a2.05 2.05 0 0 1 2.045-2.045"/><path fill="#fff" d="M72.058 3.707c2.025 0 3.666 1.315 3.666 2.936 0 .566-.2 1.095-.547 1.543a1 1 0 0 1-.068.085l-.002.002a3 3 0 0 1-.4.398c-1.013.937-2.681 2.053-2.902 1.88-.191-.149.316-.88-.27-1.002l-.12-.016h-.002c-1.717-.244-3.02-1.445-3.02-2.89-.001-1.621 1.64-2.936 3.665-2.936"/><path fill="#3ace01" d="M69.931 7.58h.74a.19.19 0 0 0 .19-.192v-.016a.19.19 0 0 0-.19-.191h-.533V5.97a.19.19 0 0 0-.191-.191h-.016a.19.19 0 0 0-.191.19v1.419c0 .105.086.191.191.191m4.581-.89v-.016a.19.19 0 0 0-.19-.19h-.533V6.18h.532a.19.19 0 0 0 .191-.19v-.017a.19.19 0 0 0-.19-.19h-.74a.19.19 0 0 0-.191.19v1.418c0 .105.086.192.19.192h.74a.19.19 0 0 0 .191-.192v-.016a.19.19 0 0 0-.19-.19h-.533V6.88h.532a.19.19 0 0 0 .191-.19m-1.422.832a.2.2 0 0 0 .056-.134V5.97a.19.19 0 0 0-.191-.191h-.016a.19.19 0 0 0-.191.19v.833l-.691-.927a.19.19 0 0 0-.166-.096h-.016a.19.19 0 0 0-.192.19v1.419c0 .105.086.191.192.191h.016a.19.19 0 0 0 .19-.191V6.54l.697.95.014.02a.16.16 0 0 0 .074.055.2.2 0 0 0 .073.014h.016a.2.2 0 0 0 .089-.022q.03-.014.047-.035m-1.883.057h.016a.19.19 0 0 0 .191-.191V5.97a.19.19 0 0 0-.191-.191h-.016a.19.19 0 0 0-.191.19v1.419c0 .105.086.191.191.191"/></g><path fill="#eee" stroke-width=".312" d="M49.363 34.804v9.52h.685v.23H49.1v-9.979h.948v.23zm2.929 3.018v.482h.012a1.4 1.4 0 0 1 .465-.427q.272-.151.623-.151.337 0 .616.13a.87.87 0 0 1 .424.46q.16-.233.43-.412.271-.178.644-.178a2 2 0 0 1 .523.07q.242.067.414.219.17.153.268.396.095.244.096.59v2.381h-.976v-2.017a4 4 0 0 0-.015-.338.7.7 0 0 0-.075-.274.44.44 0 0 0-.182-.185.64.64 0 0 0-.326-.07q-.207 0-.333.077a.6.6 0 0 0-.2.208.8.8 0 0 0-.096.29 3 3 0 0 0-.026.326v1.983h-.976v-1.996q0-.158-.008-.312a.8.8 0 0 0-.06-.285.42.42 0 0 0-.172-.21q-.12-.079-.354-.08-.071 0-.184.032a.6.6 0 0 0-.22.116.7.7 0 0 0-.183.249q-.075.16-.074.424v2.064h-.977v-3.561zm6.524 6.503v-9.521h-.686v-.23h.949v9.98h-.949v-.23z"/></g><script id="mesh_polyfill" type="text/javascript">!function(){const t=&quot;http://www.w3.org/2000/svg&quot;,e=&quot;http://www.w3.org/1999/xlink&quot;,s=&quot;http://www.w3.org/1999/xhtml&quot;,r=2;if(document.createElementNS(t,&quot;meshgradient&quot;).x)return;const n=(t,e,s,r)=&gt;{let n=new x(.5*(e.x+s.x),.5*(e.y+s.y)),o=new x(.5*(t.x+e.x),.5*(t.y+e.y)),i=new x(.5*(s.x+r.x),.5*(s.y+r.y)),a=new x(.5*(n.x+o.x),.5*(n.y+o.y)),h=new x(.5*(n.x+i.x),.5*(n.y+i.y)),l=new x(.5*(a.x+h.x),.5*(a.y+h.y));return[[t,o,a,l],[l,h,i,r]]},o=t=&gt;{let e=t[0].distSquared(t[1]),s=t[2].distSquared(t[3]),r=.25*t[0].distSquared(t[2]),n=.25*t[1].distSquared(t[3]),o=e&gt;s?e:s,i=r&gt;n?r:n;return 18*(o&gt;i?o:i)},i=(t,e)=&gt;Math.sqrt(t.distSquared(e)),a=(t,e)=&gt;t.scale(2/3).add(e.scale(1/3)),h=t=&gt;{let e,s,r,n,o,i,a,h=new g;return t.match(/(\w+\(\s*[^)]+\))+/g).forEach(t=&gt;{let l=t.match(/[\w.-]+/g),d=l.shift();switch(d){case&quot;translate&quot;:2===l.length?e=new g(1,0,0,1,l[0],l[1]):(console.error(&quot;mesh.js: translate does not have 2 arguments!&quot;),e=new g(1,0,0,1,0,0)),h=h.append(e);break;case&quot;scale&quot;:1===l.length?s=new g(l[0],0,0,l[0],0,0):2===l.length?s=new g(l[0],0,0,l[1],0,0):(console.error(&quot;mesh.js: scale does not have 1 or 2 arguments!&quot;),s=new g(1,0,0,1,0,0)),h=h.append(s);break;case&quot;rotate&quot;:if(3===l.length&amp;&amp;(e=new g(1,0,0,1,l[1],l[2]),h=h.append(e)),l[0]){r=l[0]*Math.PI/180;let t=Math.cos(r),e=Math.sin(r);Math.abs(t)&lt;1e-16&amp;&amp;(t=0),Math.abs(e)&lt;1e-16&amp;&amp;(e=0),a=new g(t,e,-e,t,0,0),h=h.append(a)}else console.error(&quot;math.js: No argument to rotate transform!&quot;);3===l.length&amp;&amp;(e=new g(1,0,0,1,-l[1],-l[2]),h=h.append(e));break;case&quot;skewX&quot;:l[0]?(r=l[0]*Math.PI/180,n=Math.tan(r),o=new g(1,0,n,1,0,0),h=h.append(o)):console.error(&quot;math.js: No argument to skewX transform!&quot;);break;case&quot;skewY&quot;:l[0]?(r=l[0]*Math.PI/180,n=Math.tan(r),i=new g(1,n,0,1,0,0),h=h.append(i)):console.error(&quot;math.js: No argument to skewY transform!&quot;);break;case&quot;matrix&quot;:6===l.length?h=h.append(new g(...l)):console.error(&quot;math.js: Incorrect number of arguments for matrix!&quot;);break;default:console.error(&quot;mesh.js: Unhandled transform type: &quot;+d)}}),h},l=t=&gt;{let e=[],s=t.split(/[ ,]+/);for(let t=0,r=s.length-1;t&lt;r;t+=2)e.push(new x(parseFloat(s[t]),parseFloat(s[t+1])));return e},d=(t,e)=&gt;{for(let s in e)t.setAttribute(s,e[s])},c=(t,e,s,r,n)=&gt;{let o,i,a=[0,0,0,0];for(let h=0;h&lt;3;++h)e[h]&lt;t[h]&amp;&amp;e[h]&lt;s[h]||t[h]&lt;e[h]&amp;&amp;s[h]&lt;e[h]?a[h]=0:(a[h]=.5*((e[h]-t[h])/r+(s[h]-e[h])/n),o=Math.abs(3*(e[h]-t[h])/r),i=Math.abs(3*(s[h]-e[h])/n),a[h]&gt;o?a[h]=o:a[h]&gt;i&amp;&amp;(a[h]=i));return a},u=[[1,0,0,0,0,0,0,0,0,0,0,0,0,0,0,0],[0,0,0,0,1,0,0,0,0,0,0,0,0,0,0,0],[-3,3,0,0,-2,-1,0,0,0,0,0,0,0,0,0,0],[2,-2,0,0,1,1,0,0,0,0,0,0,0,0,0,0],[0,0,0,0,0,0,0,0,1,0,0,0,0,0,0,0],[0,0,0,0,0,0,0,0,0,0,0,0,1,0,0,0],[0,0,0,0,0,0,0,0,-3,3,0,0,-2,-1,0,0],[0,0,0,0,0,0,0,0,2,-2,0,0,1,1,0,0],[-3,0,3,0,0,0,0,0,-2,0,-1,0,0,0,0,0],[0,0,0,0,-3,0,3,0,0,0,0,0,-2,0,-1,0],[9,-9,-9,9,6,3,-6,-3,6,-6,3,-3,4,2,2,1],[-6,6,6,-6,-3,-3,3,3,-4,4,-2,2,-2,-2,-1,-1],[2,0,-2,0,0,0,0,0,1,0,1,0,0,0,0,0],[0,0,0,0,2,0,-2,0,0,0,0,0,1,0,1,0],[-6,6,6,-6,-4,-2,4,2,-3,3,-3,3,-2,-1,-2,-1],[4,-4,-4,4,2,2,-2,-2,2,-2,2,-2,1,1,1,1]],f=t=&gt;{let e=[];for(let s=0;s&lt;16;++s){e[s]=0;for(let r=0;r&lt;16;++r)e[s]+=u[s][r]*t[r]}return e},p=(t,e,s)=&gt;{const r=e*e,n=s*s,o=e*e*e,i=s*s*s;return t[0]+t[1]*e+t[2]*r+t[3]*o+t[4]*s+t[5]*s*e+t[6]*s*r+t[7]*s*o+t[8]*n+t[9]*n*e+t[10]*n*r+t[11]*n*o+t[12]*i+t[13]*i*e+t[14]*i*r+t[15]*i*o},y=t=&gt;{let e=[],s=[],r=[];for(let s=0;s&lt;4;++s)e[s]=[],e[s][0]=n(t[0][s],t[1][s],t[2][s],t[3][s]),e[s][1]=[],e[s][1].push(...n(...e[s][0][0])),e[s][1].push(...n(...e[s][0][1])),e[s][2]=[],e[s][2].push(...n(...e[s][1][0])),e[s][2].push(...n(...e[s][1][1])),e[s][2].push(...n(...e[s][1][2])),e[s][2].push(...n(...e[s][1][3]));for(let t=0;t&lt;8;++t){s[t]=[];for(let r=0;r&lt;4;++r)s[t][r]=[],s[t][r][0]=n(e[0][2][t][r],e[1][2][t][r],e[2][2][t][r],e[3][2][t][r]),s[t][r][1]=[],s[t][r][1].push(...n(...s[t][r][0][0])),s[t][r][1].push(...n(...s[t][r][0][1])),s[t][r][2]=[],s[t][r][2].push(...n(...s[t][r][1][0])),s[t][r][2].push(...n(...s[t][r][1][1])),s[t][r][2].push(...n(...s[t][r][1][2])),s[t][r][2].push(...n(...s[t][r][1][3]))}for(let t=0;t&lt;8;++t){r[t]=[];for(let e=0;e&lt;8;++e)r[t][e]=[],r[t][e][0]=s[t][0][2][e],r[t][e][1]=s[t][1][2][e],r[t][e][2]=s[t][2][2][e],r[t][e][3]=s[t][3][2][e]}return r};class x{constructor(t,e){this.x=t||0,this.y=e||0}toString(){return`(x=${this.x}, y=${this.y})`}clone(){return new x(this.x,this.y)}add(t){return new x(this.x+t.x,this.y+t.y)}scale(t){return void 0===t.x?new x(this.x*t,this.y*t):new x(this.x*t.x,this.y*t.y)}distSquared(t){let e=this.x-t.x,s=this.y-t.y;return e*e+s*s}transform(t){let e=this.x*t.a+this.y*t.c+t.e,s=this.x*t.b+this.y*t.d+t.f;return new x(e,s)}}class g{constructor(t,e,s,r,n,o){void 0===t?(this.a=1,this.b=0,this.c=0,this.d=1,this.e=0,this.f=0):(this.a=t,this.b=e,this.c=s,this.d=r,this.e=n,this.f=o)}toString(){return`affine: ${this.a} ${this.c} ${this.e} \n       ${this.b} ${this.d} ${this.f}`}append(t){t instanceof g||console.error(&quot;mesh.js: argument to Affine.append is not affine!&quot;);let e=this.a*t.a+this.c*t.b,s=this.b*t.a+this.d*t.b,r=this.a*t.c+this.c*t.d,n=this.b*t.c+this.d*t.d,o=this.a*t.e+this.c*t.f+this.e,i=this.b*t.e+this.d*t.f+this.f;return new g(e,s,r,n,o,i)}}class w{constructor(t,e){this.nodes=t,this.colors=e}paintCurve(t,e){if(o(this.nodes)&gt;r){const s=n(...this.nodes);let r=[[],[]],o=[[],[]];for(let t=0;t&lt;4;++t)r[0][t]=this.colors[0][t],r[1][t]=(this.colors[0][t]+this.colors[1][t])/2,o[0][t]=r[1][t],o[1][t]=this.colors[1][t];let i=new w(s[0],r),a=new w(s[1],o);i.paintCurve(t,e),a.paintCurve(t,e)}else{let s=Math.round(this.nodes[0].x);if(s&gt;=0&amp;&amp;s&lt;e){let r=4*(~~this.nodes[0].y*e+s);t[r]=Math.round(this.colors[0][0]),t[r+1]=Math.round(this.colors[0][1]),t[r+2]=Math.round(this.colors[0][2]),t[r+3]=Math.round(this.colors[0][3])}}}}class m{constructor(t,e){this.nodes=t,this.colors=e}split(){let t=[[],[],[],[]],e=[[],[],[],[]],s=[[[],[]],[[],[]]],r=[[[],[]],[[],[]]];for(let s=0;s&lt;4;++s){const r=n(this.nodes[0][s],this.nodes[1][s],this.nodes[2][s],this.nodes[3][s]);t[0][s]=r[0][0],t[1][s]=r[0][1],t[2][s]=r[0][2],t[3][s]=r[0][3],e[0][s]=r[1][0],e[1][s]=r[1][1],e[2][s]=r[1][2],e[3][s]=r[1][3]}for(let t=0;t&lt;4;++t)s[0][0][t]=this.colors[0][0][t],s[0][1][t]=this.colors[0][1][t],s[1][0][t]=(this.colors[0][0][t]+this.colors[1][0][t])/2,s[1][1][t]=(this.colors[0][1][t]+this.colors[1][1][t])/2,r[0][0][t]=s[1][0][t],r[0][1][t]=s[1][1][t],r[1][0][t]=this.colors[1][0][t],r[1][1][t]=this.colors[1][1][t];return[new m(t,s),new m(e,r)]}paint(t,e){let s,n=!1;for(let t=0;t&lt;4;++t)if((s=o([this.nodes[0][t],this.nodes[1][t],this.nodes[2][t],this.nodes[3][t]]))&gt;r){n=!0;break}if(n){let s=this.split();s[0].paint(t,e),s[1].paint(t,e)}else{new w([...this.nodes[0]],[...this.colors[0]]).paintCurve(t,e)}}}class b{constructor(t){this.readMesh(t),this.type=t.getAttribute(&quot;type&quot;)||&quot;bilinear&quot;}readMesh(t){let e=[[]],s=[[]],r=Number(t.getAttribute(&quot;x&quot;)),n=Number(t.getAttribute(&quot;y&quot;));e[0][0]=new x(r,n);let o=t.children;for(let t=0,r=o.length;t&lt;r;++t){e[3*t+1]=[],e[3*t+2]=[],e[3*t+3]=[],s[t+1]=[];let r=o[t].children;for(let n=0,o=r.length;n&lt;o;++n){let o=r[n].children;for(let r=0,i=o.length;r&lt;i;++r){let i=r;0!==t&amp;&amp;++i;let h,d=o[r].getAttribute(&quot;path&quot;),c=&quot;l&quot;;null!=d&amp;&amp;(c=(h=d.match(/\s*([lLcC])\s*(.*)/))[1]);let u=l(h[2]);switch(c){case&quot;l&quot;:0===i?(e[3*t][3*n+3]=u[0].add(e[3*t][3*n]),e[3*t][3*n+1]=a(e[3*t][3*n],e[3*t][3*n+3]),e[3*t][3*n+2]=a(e[3*t][3*n+3],e[3*t][3*n])):1===i?(e[3*t+3][3*n+3]=u[0].add(e[3*t][3*n+3]),e[3*t+1][3*n+3]=a(e[3*t][3*n+3],e[3*t+3][3*n+3]),e[3*t+2][3*n+3]=a(e[3*t+3][3*n+3],e[3*t][3*n+3])):2===i?(0===n&amp;&amp;(e[3*t+3][3*n+0]=u[0].add(e[3*t+3][3*n+3])),e[3*t+3][3*n+1]=a(e[3*t+3][3*n],e[3*t+3][3*n+3]),e[3*t+3][3*n+2]=a(e[3*t+3][3*n+3],e[3*t+3][3*n])):(e[3*t+1][3*n]=a(e[3*t][3*n],e[3*t+3][3*n]),e[3*t+2][3*n]=a(e[3*t+3][3*n],e[3*t][3*n]));break;case&quot;L&quot;:0===i?(e[3*t][3*n+3]=u[0],e[3*t][3*n+1]=a(e[3*t][3*n],e[3*t][3*n+3]),e[3*t][3*n+2]=a(e[3*t][3*n+3],e[3*t][3*n])):1===i?(e[3*t+3][3*n+3]=u[0],e[3*t+1][3*n+3]=a(e[3*t][3*n+3],e[3*t+3][3*n+3]),e[3*t+2][3*n+3]=a(e[3*t+3][3*n+3],e[3*t][3*n+3])):2===i?(0===n&amp;&amp;(e[3*t+3][3*n+0]=u[0]),e[3*t+3][3*n+1]=a(e[3*t+3][3*n],e[3*t+3][3*n+3]),e[3*t+3][3*n+2]=a(e[3*t+3][3*n+3],e[3*t+3][3*n])):(e[3*t+1][3*n]=a(e[3*t][3*n],e[3*t+3][3*n]),e[3*t+2][3*n]=a(e[3*t+3][3*n],e[3*t][3*n]));break;case&quot;c&quot;:0===i?(e[3*t][3*n+1]=u[0].add(e[3*t][3*n]),e[3*t][3*n+2]=u[1].add(e[3*t][3*n]),e[3*t][3*n+3]=u[2].add(e[3*t][3*n])):1===i?(e[3*t+1][3*n+3]=u[0].add(e[3*t][3*n+3]),e[3*t+2][3*n+3]=u[1].add(e[3*t][3*n+3]),e[3*t+3][3*n+3]=u[2].add(e[3*t][3*n+3])):2===i?(e[3*t+3][3*n+2]=u[0].add(e[3*t+3][3*n+3]),e[3*t+3][3*n+1]=u[1].add(e[3*t+3][3*n+3]),0===n&amp;&amp;(e[3*t+3][3*n+0]=u[2].add(e[3*t+3][3*n+3]))):(e[3*t+2][3*n]=u[0].add(e[3*t+3][3*n]),e[3*t+1][3*n]=u[1].add(e[3*t+3][3*n]));break;case&quot;C&quot;:0===i?(e[3*t][3*n+1]=u[0],e[3*t][3*n+2]=u[1],e[3*t][3*n+3]=u[2]):1===i?(e[3*t+1][3*n+3]=u[0],e[3*t+2][3*n+3]=u[1],e[3*t+3][3*n+3]=u[2]):2===i?(e[3*t+3][3*n+2]=u[0],e[3*t+3][3*n+1]=u[1],0===n&amp;&amp;(e[3*t+3][3*n+0]=u[2])):(e[3*t+2][3*n]=u[0],e[3*t+1][3*n]=u[1]);break;default:console.error(&quot;mesh.js: &quot;+c+&quot; invalid path type.&quot;)}if(0===t&amp;&amp;0===n||r&gt;0){let e=window.getComputedStyle(o[r]).stopColor.match(/^rgb\s*\(\s*(\d+)\s*,\s*(\d+)\s*,\s*(\d+)\s*\)$/i),a=window.getComputedStyle(o[r]).stopOpacity,h=255;a&amp;&amp;(h=Math.floor(255*a)),e&amp;&amp;(0===i?(s[t][n]=[],s[t][n][0]=Math.floor(e[1]),s[t][n][1]=Math.floor(e[2]),s[t][n][2]=Math.floor(e[3]),s[t][n][3]=h):1===i?(s[t][n+1]=[],s[t][n+1][0]=Math.floor(e[1]),s[t][n+1][1]=Math.floor(e[2]),s[t][n+1][2]=Math.floor(e[3]),s[t][n+1][3]=h):2===i?(s[t+1][n+1]=[],s[t+1][n+1][0]=Math.floor(e[1]),s[t+1][n+1][1]=Math.floor(e[2]),s[t+1][n+1][2]=Math.floor(e[3]),s[t+1][n+1][3]=h):3===i&amp;&amp;(s[t+1][n]=[],s[t+1][n][0]=Math.floor(e[1]),s[t+1][n][1]=Math.floor(e[2]),s[t+1][n][2]=Math.floor(e[3]),s[t+1][n][3]=h))}}e[3*t+1][3*n+1]=new x,e[3*t+1][3*n+2]=new x,e[3*t+2][3*n+1]=new x,e[3*t+2][3*n+2]=new x,e[3*t+1][3*n+1].x=(-4*e[3*t][3*n].x+6*(e[3*t][3*n+1].x+e[3*t+1][3*n].x)+-2*(e[3*t][3*n+3].x+e[3*t+3][3*n].x)+3*(e[3*t+3][3*n+1].x+e[3*t+1][3*n+3].x)+-1*e[3*t+3][3*n+3].x)/9,e[3*t+1][3*n+2].x=(-4*e[3*t][3*n+3].x+6*(e[3*t][3*n+2].x+e[3*t+1][3*n+3].x)+-2*(e[3*t][3*n].x+e[3*t+3][3*n+3].x)+3*(e[3*t+3][3*n+2].x+e[3*t+1][3*n].x)+-1*e[3*t+3][3*n].x)/9,e[3*t+2][3*n+1].x=(-4*e[3*t+3][3*n].x+6*(e[3*t+3][3*n+1].x+e[3*t+2][3*n].x)+-2*(e[3*t+3][3*n+3].x+e[3*t][3*n].x)+3*(e[3*t][3*n+1].x+e[3*t+2][3*n+3].x)+-1*e[3*t][3*n+3].x)/9,e[3*t+2][3*n+2].x=(-4*e[3*t+3][3*n+3].x+6*(e[3*t+3][3*n+2].x+e[3*t+2][3*n+3].x)+-2*(e[3*t+3][3*n].x+e[3*t][3*n+3].x)+3*(e[3*t][3*n+2].x+e[3*t+2][3*n].x)+-1*e[3*t][3*n].x)/9,e[3*t+1][3*n+1].y=(-4*e[3*t][3*n].y+6*(e[3*t][3*n+1].y+e[3*t+1][3*n].y)+-2*(e[3*t][3*n+3].y+e[3*t+3][3*n].y)+3*(e[3*t+3][3*n+1].y+e[3*t+1][3*n+3].y)+-1*e[3*t+3][3*n+3].y)/9,e[3*t+1][3*n+2].y=(-4*e[3*t][3*n+3].y+6*(e[3*t][3*n+2].y+e[3*t+1][3*n+3].y)+-2*(e[3*t][3*n].y+e[3*t+3][3*n+3].y)+3*(e[3*t+3][3*n+2].y+e[3*t+1][3*n].y)+-1*e[3*t+3][3*n].y)/9,e[3*t+2][3*n+1].y=(-4*e[3*t+3][3*n].y+6*(e[3*t+3][3*n+1].y+e[3*t+2][3*n].y)+-2*(e[3*t+3][3*n+3].y+e[3*t][3*n].y)+3*(e[3*t][3*n+1].y+e[3*t+2][3*n+3].y)+-1*e[3*t][3*n+3].y)/9,e[3*t+2][3*n+2].y=(-4*e[3*t+3][3*n+3].y+6*(e[3*t+3][3*n+2].y+e[3*t+2][3*n+3].y)+-2*(e[3*t+3][3*n].y+e[3*t][3*n+3].y)+3*(e[3*t][3*n+2].y+e[3*t+2][3*n].y)+-1*e[3*t][3*n].y)/9}}this.nodes=e,this.colors=s}paintMesh(t,e){let s=(this.nodes.length-1)/3,r=(this.nodes[0].length-1)/3;if(&quot;bilinear&quot;===this.type||s&lt;2||r&lt;2){let n;for(let o=0;o&lt;s;++o)for(let s=0;s&lt;r;++s){let r=[];for(let t=3*o,e=3*o+4;t&lt;e;++t)r.push(this.nodes[t].slice(3*s,3*s+4));let i=[];i.push(this.colors[o].slice(s,s+2)),i.push(this.colors[o+1].slice(s,s+2)),(n=new m(r,i)).paint(t,e)}}else{let n,o,a,h,l,d,u;const x=s,g=r;s++,r++;let w=new Array(s);for(let t=0;t&lt;s;++t){w[t]=new Array(r);for(let e=0;e&lt;r;++e)w[t][e]=[],w[t][e][0]=this.nodes[3*t][3*e],w[t][e][1]=this.colors[t][e]}for(let t=0;t&lt;s;++t)for(let e=0;e&lt;r;++e)0!==t&amp;&amp;t!==x&amp;&amp;(n=i(w[t-1][e][0],w[t][e][0]),o=i(w[t+1][e][0],w[t][e][0]),w[t][e][2]=c(w[t-1][e][1],w[t][e][1],w[t+1][e][1],n,o)),0!==e&amp;&amp;e!==g&amp;&amp;(n=i(w[t][e-1][0],w[t][e][0]),o=i(w[t][e+1][0],w[t][e][0]),w[t][e][3]=c(w[t][e-1][1],w[t][e][1],w[t][e+1][1],n,o));for(let t=0;t&lt;r;++t){w[0][t][2]=[],w[x][t][2]=[];for(let e=0;e&lt;4;++e)n=i(w[1][t][0],w[0][t][0]),o=i(w[x][t][0],w[x-1][t][0]),w[0][t][2][e]=n&gt;0?2*(w[1][t][1][e]-w[0][t][1][e])/n-w[1][t][2][e]:0,w[x][t][2][e]=o&gt;0?2*(w[x][t][1][e]-w[x-1][t][1][e])/o-w[x-1][t][2][e]:0}for(let t=0;t&lt;s;++t){w[t][0][3]=[],w[t][g][3]=[];for(let e=0;e&lt;4;++e)n=i(w[t][1][0],w[t][0][0]),o=i(w[t][g][0],w[t][g-1][0]),w[t][0][3][e]=n&gt;0?2*(w[t][1][1][e]-w[t][0][1][e])/n-w[t][1][3][e]:0,w[t][g][3][e]=o&gt;0?2*(w[t][g][1][e]-w[t][g-1][1][e])/o-w[t][g-1][3][e]:0}for(let s=0;s&lt;x;++s)for(let r=0;r&lt;g;++r){let n=i(w[s][r][0],w[s+1][r][0]),o=i(w[s][r+1][0],w[s+1][r+1][0]),c=i(w[s][r][0],w[s][r+1][0]),x=i(w[s+1][r][0],w[s+1][r+1][0]),g=[[],[],[],[]];for(let t=0;t&lt;4;++t){(d=[])[0]=w[s][r][1][t],d[1]=w[s+1][r][1][t],d[2]=w[s][r+1][1][t],d[3]=w[s+1][r+1][1][t],d[4]=w[s][r][2][t]*n,d[5]=w[s+1][r][2][t]*n,d[6]=w[s][r+1][2][t]*o,d[7]=w[s+1][r+1][2][t]*o,d[8]=w[s][r][3][t]*c,d[9]=w[s+1][r][3][t]*x,d[10]=w[s][r+1][3][t]*c,d[11]=w[s+1][r+1][3][t]*x,d[12]=0,d[13]=0,d[14]=0,d[15]=0,u=f(d);for(let e=0;e&lt;9;++e){g[t][e]=[];for(let s=0;s&lt;9;++s)g[t][e][s]=p(u,e/8,s/8),g[t][e][s]&gt;255?g[t][e][s]=255:g[t][e][s]&lt;0&amp;&amp;(g[t][e][s]=0)}}h=[];for(let t=3*s,e=3*s+4;t&lt;e;++t)h.push(this.nodes[t].slice(3*r,3*r+4));l=y(h);for(let s=0;s&lt;8;++s)for(let r=0;r&lt;8;++r)(a=new m(l[s][r],[[[g[0][s][r],g[1][s][r],g[2][s][r],g[3][s][r]],[g[0][s][r+1],g[1][s][r+1],g[2][s][r+1],g[3][s][r+1]]],[[g[0][s+1][r],g[1][s+1][r],g[2][s+1][r],g[3][s+1][r]],[g[0][s+1][r+1],g[1][s+1][r+1],g[2][s+1][r+1],g[3][s+1][r+1]]]])).paint(t,e)}}}transform(t){if(t instanceof x)for(let e=0,s=this.nodes.length;e&lt;s;++e)for(let s=0,r=this.nodes[0].length;s&lt;r;++s)this.nodes[e][s]=this.nodes[e][s].add(t);else if(t instanceof g)for(let e=0,s=this.nodes.length;e&lt;s;++e)for(let s=0,r=this.nodes[0].length;s&lt;r;++s)this.nodes[e][s]=this.nodes[e][s].transform(t)}scale(t){for(let e=0,s=this.nodes.length;e&lt;s;++e)for(let s=0,r=this.nodes[0].length;s&lt;r;++s)this.nodes[e][s]=this.nodes[e][s].scale(t)}}document.querySelectorAll(&quot;rect,circle,ellipse,path,text&quot;).forEach((r,n)=&gt;{let o=r.getAttribute(&quot;id&quot;);o||(o=&quot;patchjs_shape&quot;+n,r.setAttribute(&quot;id&quot;,o));const i=r.style.fill.match(/^url\(\s*&quot;?\s*#([^\s&quot;]+)&quot;?\s*\)/),a=r.style.stroke.match(/^url\(\s*&quot;?\s*#([^\s&quot;]+)&quot;?\s*\)/);if(i&amp;&amp;i[1]){const a=document.getElementById(i[1]);if(a&amp;&amp;&quot;meshgradient&quot;===a.nodeName){const i=r.getBBox();let l=document.createElementNS(s,&quot;canvas&quot;);d(l,{width:i.width,height:i.height});const c=l.getContext(&quot;2d&quot;);let u=c.createImageData(i.width,i.height);const f=new b(a);&quot;objectBoundingBox&quot;===a.getAttribute(&quot;gradientUnits&quot;)&amp;&amp;f.scale(new x(i.width,i.height));const p=a.getAttribute(&quot;gradientTransform&quot;);null!=p&amp;&amp;f.transform(h(p)),&quot;userSpaceOnUse&quot;===a.getAttribute(&quot;gradientUnits&quot;)&amp;&amp;f.transform(new x(-i.x,-i.y)),f.paintMesh(u.data,l.width),c.putImageData(u,0,0);const y=document.createElementNS(t,&quot;image&quot;);d(y,{width:i.width,height:i.height,x:i.x,y:i.y});let g=l.toDataURL();y.setAttributeNS(e,&quot;xlink:href&quot;,g),r.parentNode.insertBefore(y,r),r.style.fill=&quot;none&quot;;const w=document.createElementNS(t,&quot;use&quot;);w.setAttributeNS(e,&quot;xlink:href&quot;,&quot;#&quot;+o);const m=&quot;patchjs_clip&quot;+n,M=document.createElementNS(t,&quot;clipPath&quot;);M.setAttribute(&quot;id&quot;,m),M.appendChild(w),r.parentElement.insertBefore(M,r),y.setAttribute(&quot;clip-path&quot;,&quot;url(#&quot;+m+&quot;)&quot;),u=null,l=null,g=null}}if(a&amp;&amp;a[1]){const o=document.getElementById(a[1]);if(o&amp;&amp;&quot;meshgradient&quot;===o.nodeName){const i=parseFloat(r.style.strokeWidth.slice(0,-2))*(parseFloat(r.style.strokeMiterlimit)||parseFloat(r.getAttribute(&quot;stroke-miterlimit&quot;))||1),a=r.getBBox(),l=Math.trunc(a.width+i),c=Math.trunc(a.height+i),u=Math.trunc(a.x-i/2),f=Math.trunc(a.y-i/2);let p=document.createElementNS(s,&quot;canvas&quot;);d(p,{width:l,height:c});const y=p.getContext(&quot;2d&quot;);let g=y.createImageData(l,c);const w=new b(o);&quot;objectBoundingBox&quot;===o.getAttribute(&quot;gradientUnits&quot;)&amp;&amp;w.scale(new x(l,c));const m=o.getAttribute(&quot;gradientTransform&quot;);null!=m&amp;&amp;w.transform(h(m)),&quot;userSpaceOnUse&quot;===o.getAttribute(&quot;gradientUnits&quot;)&amp;&amp;w.transform(new x(-u,-f)),w.paintMesh(g.data,p.width),y.putImageData(g,0,0);const M=document.createElementNS(t,&quot;image&quot;);d(M,{width:l,height:c,x:0,y:0});let S=p.toDataURL();M.setAttributeNS(e,&quot;xlink:href&quot;,S);const k=&quot;pattern_clip&quot;+n,A=document.createElementNS(t,&quot;pattern&quot;);d(A,{id:k,patternUnits:&quot;userSpaceOnUse&quot;,width:l,height:c,x:u,y:f}),A.appendChild(M),o.parentNode.appendChild(A),r.style.stroke=&quot;url(#&quot;+k+&quot;)&quot;,g=null,p=null,S=null}}})}();</script></svg>
