<svg xmlns="http://www.w3.org/2000/svg" viewBox="0 0 199.483 46"><metadata>© 2025 Chris Caron. All rights reserved. Apprise logo and associated marks. https://github.com/caronc/apprise</metadata><defs><marker id="a" markerHeight="1" markerWidth="1" orient="auto-start-reverse" overflow="visible" preserveAspectRatio="xMidYMid" refX="0" refY="0" viewBox="0 0 1 1"><path fill="#000" fill-rule="evenodd" stroke="#000" stroke-width=".5pt" d="M2.885 0-1.44 2.5v-5Z"/></marker></defs><path fill="none" d="M0 0h199.483v46H0Z"/><path fill="#2b7935" stroke="#72ad78" stroke-width=".469" d="M45.644 13.992h12.422c1.108 0 2 .892 2 2v3.999c0 1.108-.892 2-2 2H45.644c-1.108 0-2-.892-2-2v-4c0-1.107.892-2 2-2z"/><path fill="#0f5f57" d="M80.174 19.309h-1.252l-.225.674h-.702l1.188-3.343h.761l1.156 3.343h-.706zm-.188-.574-.436-1.307-.436 1.307zm2.215.055v1.193h-.688V16.64h1.476q.523 0 .798.266.28.266.28.77 0 .51-.275.812t-.734.302zm0-.573h.642q.536 0 .536-.5 0-.257-.133-.38-.128-.124-.403-.124H82.2zm3.104.573v1.193h-.687V16.64h1.476q.523 0 .798.266.28.266.28.77 0 .51-.275.812t-.734.302zm0-.573h.642q.537 0 .537-.5 0-.257-.133-.38-.128-.124-.404-.124h-.642zm4.311 1.193q0-.138.005-.216t.005-.138q0-.21-.101-.302-.101-.097-.326-.097h-.789v1.326h-.688V16.64h1.794q.256 0 .44.087.188.087.28.229.096.142.137.289.041.142.041.298 0 .605-.564.826.124.05.184.082.06.028.119.096.064.07.083.124.022.055.04.202.024.147.028.289.005.142.01.422 0 .192.146.275v.124h-.738q-.064-.12-.087-.23-.019-.11-.019-.343m.11-1.77q0-.257-.119-.34-.119-.087-.367-.087h-.83v.871h.83q.243 0 .363-.087.123-.087.123-.358m1.995-1v3.343h-.688V16.64zm3.188 1.018h-.642q-.037-.523-.702-.523-.266 0-.422.115-.156.11-.156.298 0 .183.133.275.133.087.5.16l.523.101q.463.092.674.312.211.216.211.61 0 .51-.362.798-.363.284-1.01.284-.641 0-1-.284-.352-.284-.384-.82h.67q.018.27.21.412.193.142.541.142.312 0 .491-.12.184-.118.184-.33 0-.201-.143-.311-.142-.11-.486-.175l-.468-.091q-.509-.097-.724-.303-.216-.206-.216-.596 0-.49.33-.757.335-.27.936-.27.174 0 .335.022.165.023.348.097.184.069.317.183.133.11.22.312.092.197.092.459m1.357.885v.867h1.812v.573h-2.5V16.64h2.417v.573h-1.729v.757h1.6v.573Zm3.362-.129v.62H98.38v-.62Zm2.385.895h-1.252l-.225.674h-.702l1.188-3.343h.761l1.156 3.343h-.706zm-.188-.574-.436-1.307-.436 1.307zm2.215.055v1.193h-.688V16.64h1.476q.523 0 .798.266.28.266.28.77 0 .51-.275.812t-.734.302zm0-.573h.642q.536 0 .536-.5 0-.257-.133-.38-.128-.124-.403-.124h-.642zm3.104-1.577v3.343h-.687V16.64zm1.734 1.774v.62h-1.247v-.62Zm1.215.45v1.119h-.688V16.64h.688v1.467l1.307-1.467h.812l-1.334 1.44 1.476 1.903h-.82l-1.097-1.477zm3.339-.321v.867h1.812v.573h-2.5V16.64h2.417v.573h-1.729v.757h1.6v.573Zm3.839.202v1.238h-.688v-1.238l-1.11-2.105h.766l.683 1.476.637-1.476h.77z"/><path fill="#505050" d="M52.734 30.932h.49v.236a.8.8 0 0 1 .24-.205.6.6 0 0 1 .283-.063q.374 0 .518.282a.66.66 0 0 1 .558-.282q.285 0 .444.155.162.155.162.434v1.348h-.494v-1.27a.23.23 0 0 0-.074-.18.27.27 0 0 0-.194-.067.33.33 0 0 0-.25.098.4.4 0 0 0-.088.276v1.143h-.494v-1.27a.23.23 0 0 0-.074-.18.27.27 0 0 0-.194-.067.33.33 0 0 0-.25.098.4.4 0 0 0-.089.276v1.143h-.494Zm3.67 1.996v-.014l-.71-1.982h.543l.42 1.386.395-1.386h.508l-.783 2.254-.014.046a1 1 0 0 1-.053.12.2.2 0 0 1-.039.063l-.056.057a.2.2 0 0 1-.081.056 1 1 0 0 1-.1.042.5.5 0 0 1-.13.029 1.2 1.2 0 0 1-.338-.004v-.37a.5.5 0 0 0 .13.02q.13 0 .219-.09a.3.3 0 0 0 .088-.227m2.243-1.298v.476h-.96v-.476Zm1.21-.66v.329h-.275v1.037q0 .126.031.169.033.039.13.039a1 1 0 0 0 .114-.01v.345a1 1 0 0 1-.286.039q-.483 0-.483-.448v-1.171h-.244v-.329h.244v-.511h.494v.511Zm.825 1.948a.57.57 0 0 1-.42-.155.56.56 0 0 1-.158-.417q0-.504.56-.6l.198-.035a2 2 0 0 0 .152-.02l.067-.019a.2.2 0 0 0 .074-.024l.05-.035a.13.13 0 0 0 .042-.053.2.2 0 0 0 .01-.071q0-.19-.285-.19-.184 0-.258.056-.075.057-.092.204h-.476q.045-.66.815-.66.78 0 .78.586v1.059q0 .13.112.233v.06h-.536a.3.3 0 0 1-.056-.19q-.261.27-.579.27m.575-.847v-.134a1 1 0 0 1-.208.06l-.17.032a.45.45 0 0 0-.218.091.22.22 0 0 0-.063.17q0 .105.07.17.074.06.198.06a.37.37 0 0 0 .289-.117.5.5 0 0 0 .102-.332m2.163-1.14h.469v1.97q0 .333-.24.518-.236.187-.667.187-.38 0-.61-.148a.45.45 0 0 1-.233-.392h.512q.06.222.349.222a.43.43 0 0 0 .303-.11.36.36 0 0 0 .117-.278v-.257a.9.9 0 0 1-.258.215.6.6 0 0 1-.282.06.69.69 0 0 1-.568-.272q-.212-.272-.212-.716 0-.441.226-.734.225-.296.565-.296.317 0 .529.324Zm-.424.382q-.18 0-.292.169a.8.8 0 0 0-.11.44q0 .259.11.42a.33.33 0 0 0 .285.163q.195 0 .314-.162a.67.67 0 0 0 .124-.42.73.73 0 0 0-.124-.437.36.36 0 0 0-.306-.173"/><path d="M53.809 26.376v.394h-.33v1.245q0 .152.038.203.038.045.156.046.046 0 .136-.012v.414q-.144.048-.343.047-.58 0-.58-.538V26.77h-.292v-.394h.292v-.614h.592v.614Zm.99 2.337a.7.7 0 0 1-.504-.186.68.68 0 0 1-.19-.5q0-.604.673-.72l.237-.042a2 2 0 0 0 .182-.025l.08-.021a.3.3 0 0 0 .09-.03l.059-.042a.15.15 0 0 0 .05-.064.3.3 0 0 0 .013-.084q0-.23-.343-.23-.22 0-.309.069-.089.068-.11.245h-.571q.055-.792.978-.791.935 0 .935.702v1.27q0 .157.136.28v.072h-.644a.36.36 0 0 1-.067-.229q-.314.326-.695.326m.69-1.016v-.16q-.08.037-.25.071l-.203.038a.55.55 0 0 0-.262.11.27.27 0 0 0-.076.203.26.26 0 0 0 .084.204q.09.072.237.072.225 0 .348-.14t.122-.398m2.595-1.367h.563v2.362q0 .402-.288.622-.283.224-.8.224-.456 0-.732-.177-.274-.174-.28-.47h.614q.072.267.42.267a.5.5 0 0 0 .364-.132.43.43 0 0 0 .14-.334v-.31q-.166.187-.31.259a.7.7 0 0 1-.338.072.83.83 0 0 1-.682-.326q-.255-.326-.254-.86 0-.529.271-.88.27-.355.677-.355.381 0 .635.389Zm-.508.457q-.215 0-.351.203-.13.204-.131.53 0 .308.131.503t.343.195q.232 0 .377-.195a.8.8 0 0 0 .148-.504.9.9 0 0 0-.148-.525.43.43 0 0 0-.369-.207m2.053 1.164q.03.145.119.22.093.075.347.076a.7.7 0 0 0 .322-.059q.118-.06.118-.165a.14.14 0 0 0-.046-.11.4.4 0 0 0-.152-.076l-.708-.22a.6.6 0 0 1-.118-.039l-.068-.025a.4.4 0 0 1-.08-.042l-.068-.051a.3.3 0 0 1-.068-.072l-.046-.085a.5.5 0 0 1-.038-.114.7.7 0 0 1-.013-.136q0-.351.25-.554.255-.207.69-.207.461 0 .724.207a.7.7 0 0 1 .27.567h-.57q-.006-.309-.428-.309a.46.46 0 0 0-.25.06q-.093.054-.093.152 0 .067.042.106a.6.6 0 0 0 .165.072l.75.216q.448.13.448.575a.7.7 0 0 1-.047.259.8.8 0 0 1-.152.245.7.7 0 0 1-.309.195q-.207.075-.491.076-1.054 0-1.08-.762Zm2.494.047v.618h-.635v-.618Zm0-1.584v.618h-.635v-.618Z"/><path fill="none" stroke="#000" stroke-width=".757" marker-end="url(#a)" d="M45.022 23.832h81.541"/><path fill="#3d3d3d" d="M63.747 16.552h.307l-.945 3.339h-.307Zm.619.798h.642v.358a.84.84 0 0 1 .743-.4q.394 0 .61.225.22.225.22.633v1.66h-.642V18.3q0-.444-.413-.444a.53.53 0 0 0-.376.133.46.46 0 0 0-.142.353v1.485h-.642Zm3.916-.041q.583 0 .904.353.325.348.325.977 0 .596-.33.944-.33.35-.894.349-.573 0-.899-.349-.326-.352-.326-.963 0-.61.326-.958.325-.354.894-.353m.005.518a.5.5 0 0 0-.422.22q-.16.22-.16.573 0 .354.16.574t.422.22q.257 0 .417-.216.165-.22.165-.569 0-.366-.16-.582a.49.49 0 0 0-.422-.22m2.82-.427v.427h-.357v1.348q0 .166.041.22.041.05.17.05.05 0 .147-.013v.45q-.157.05-.372.05-.628 0-.628-.582v-1.523h-.317V17.4h.317v-.665h.642v.665Zm1.101-.05v2.476h-.642V17.35Zm0-.867v.573h-.642v-.573Zm1.757.917v.427h-.381v2h-.642v-2h-.349V17.4h.349v-.298q0-.62.633-.619.187 0 .367.014v.482a1 1 0 0 0-.184-.014q-.174 0-.174.192v.244Zm1.105 2.546v-.019l-.922-2.577h.706l.546 1.802.514-1.802h.66l-1.018 2.93-.018.06a.3.3 0 0 1-.032.078l-.037.078a.2.2 0 0 1-.05.083l-.074.073a.3.3 0 0 1-.105.073 1 1 0 0 1-.129.055.7.7 0 0 1-.17.037 1.5 1.5 0 0 1-.44-.004v-.482a.7.7 0 0 0 .17.028q.17 0 .284-.12a.4.4 0 0 0 .115-.293m2.504-3.394h.307l-.945 3.339h-.307Z"/><path fill="#fff" d="M46.627 18.386v1.193h-.688v-3.344h1.477q.523 0 .798.267.28.266.28.77 0 .51-.275.812t-.734.302Zm0-.573h.642q.537 0 .537-.5 0-.256-.133-.38-.129-.124-.404-.124h-.642Zm2.674 1.38q-.44-.49-.44-1.26 0-.771.44-1.262.445-.49 1.165-.49.724 0 1.17.49.444.486.444 1.284 0 .743-.44 1.239-.435.49-1.17.49-.73 0-1.169-.49m1.17-2.426a.81.81 0 0 0-.67.322q-.252.316-.252.843 0 .528.252.849a.81.81 0 0 0 .67.316.81.81 0 0 0 .664-.316q.257-.317.257-.83 0-.541-.252-.863a.8.8 0 0 0-.67-.32m4.613.487h-.642q-.036-.523-.702-.523a.7.7 0 0 0-.422.114.35.35 0 0 0-.155.299q0 .183.133.275.132.087.5.16l.522.101q.464.091.674.312.211.216.211.61 0 .51-.362.798-.363.285-1.009.284-.642 0-1-.284-.353-.284-.385-.821h.67a.53.53 0 0 0 .21.413q.194.142.542.142.312 0 .49-.12a.37.37 0 0 0 .184-.33.37.37 0 0 0-.142-.311q-.142-.11-.486-.175l-.468-.091q-.51-.096-.725-.303-.216-.207-.215-.596 0-.491.33-.757.335-.27.935-.27.175 0 .335.022.165.024.349.097.183.069.316.183a.8.8 0 0 1 .22.312q.093.197.092.459m2.142-.445v2.77h-.688v-2.77h-1.014v-.574h2.679v.574Z"/><g fill="none"><path fill="#18998c" d="M165.938 28.981c-2.975 0-5.386.844-5.386 1.885v6.732c0 1.042 2.411 1.886 5.386 1.886s5.386-.844 5.386-1.886v-6.732c0-1.041-2.412-1.885-5.386-1.885"/><path fill="#0f5f57" d="M171.324 30.867c0 1.04-2.412 1.884-5.386 1.884s-5.386-.843-5.386-1.885c0-1.041 2.411-1.885 5.386-1.885s5.386.844 5.386 1.885"/><path fill="#0f5f57" fill-rule="evenodd" d="M171.324 34.196a1.4 1.4 0 0 1-.178.18c-.251.216-.639.429-1.15.615-1.02.37-2.455.608-4.058.608s-3.038-.237-4.058-.608c-.512-.186-.899-.399-1.15-.615a1.5 1.5 0 0 1-.178-.18V35.2c.301.196.662.367 1.065.514 1.124.409 2.652.654 4.321.654s3.197-.246 4.32-.654a5.3 5.3 0 0 0 1.066-.514Z" clip-rule="evenodd"/></g><g fill="#ccc"><path d="M152.779 14.518v.04c1.095.152 2.245.687 3.224 1.196 1.115.578 2.182 1.296 2.977 2.304 2.236 2.835 2.165 7.466-.002 10.31-1.082 1.42-2.828 2.327-4.437 2.944-.573.22-1.191.472-1.8.557.179.078.375.005.563 0a8.3 8.3 0 0 0 1.65-.217c2.387-.546 4.662-2.146 5.646-4.53 1.271-3.081 1.134-7.093-1.116-9.686a8.35 8.35 0 0 0-3.143-2.239c-1.122-.461-2.359-.678-3.562-.679"/><path d="M153.154 14.518v.04c1.095.152 2.244.687 3.224 1.196 1.115.578 2.182 1.296 2.977 2.304 2.236 2.835 2.165 7.466-.002 10.31-1.082 1.42-2.828 2.327-4.437 2.944-.573.22-1.191.472-1.8.557.179.078.375.005.563 0a8.3 8.3 0 0 0 1.65-.217c2.387-.546 4.662-2.146 5.645-4.53 1.272-3.081 1.135-7.093-1.115-9.686a8.35 8.35 0 0 0-3.143-2.239c-1.122-.461-2.359-.678-3.562-.679"/></g><path fill="#0f5f57" d="m177.969 33.073.401 1.222h1.286l-2.104-6.059h-1.387l-2.163 6.059h1.278l.409-1.222Zm-.342-1.039h-1.587l.793-2.368Zm4.076.1h1.562c1.119 0 1.837-.79 1.837-2.02 0-1.213-.693-1.878-1.963-1.878h-2.689v6.059h1.253Zm0-1.039v-1.82h1.169c.668 0 .977.29.977.906 0 .623-.309.914-.977.914Zm5.379-2.859h-1.253v6.059h1.253Z"/><path d="m177.765 25.966-.414 1.196c1.554.643 4.848 1.007 4.848-1.484 0-.296-.043-.59-.155-.866-.499-1.22-2.006-.992-2.826-1.777-.303-.29-.275-.727.122-.92.333-.163.805-.134 1.16-.076.334.056.63.211.953.3l.415-1.155c-1.403-.744-4.382-.718-4.393 1.443-.001.255-.001.498.087.742.493 1.362 2.194.999 2.963 1.979.341.434-.026.883-.481.993-.775.189-1.574-.083-2.279-.375m-18.936-4.988v6.555h1.492v-2.226c.919 0 1.981.006 2.776-.526 1.046-.7 1.134-2.59.124-3.37-1.209-.932-3.007-.542-4.392-.433m5.47 0v6.555h1.491v-2.226c.919 0 1.982.006 2.777-.526 1.045-.7 1.134-2.59.124-3.37-1.209-.932-3.007-.542-4.392-.433m5.469 0v6.555h1.492V25.1c.209 0 .548-.064.734.043.79.452.877 1.758 1.53 2.324.118.102.326.066.471.066h1.201c-.301-1.04-1.143-1.82-1.616-2.762 1.493-.287 1.584-2.557.539-3.36-1.203-.923-2.975-.541-4.351-.433m5.677-.083v6.638h1.492v-6.638Zm7.21 0v6.638h4.434v-1.278h-2.942v-1.567h2.652v-1.237h-2.652v-1.278h2.942v-1.278Zm-22.334 3.134V22.09c.503 0 1.106-.084 1.574.14.554.265.687 1.172.162 1.546-.476.339-1.185.252-1.736.252m5.469 0V22.09c.504 0 1.106-.084 1.575.14.553.265.687 1.172.162 1.546-.477.339-1.186.252-1.737.252m5.47-.124V22.09c.521 0 1.14-.08 1.616.182.523.287.548 1.109.041 1.426-.465.29-1.135.206-1.657.206m-24.911-3.154c.391 1.617.536 3.378.745 5.03l2.611-.372c-.412.67-.827 1.34-1.219 2.02-.161.28-.451.619-.475.949-.042.588 1.167 1.298 1.648.89.274-.231.455-.665.632-.973.343-.594.711-1.17 1.04-1.773.138-.254.391-.954.696-1.022.303-.068.741.127 1.034.198 1.102.264 2.19.749 3.15 1.343.474.294 1.194.935 1.671.264.159-.224.104-.49.069-.741-.074-.537-.166-1.071-.237-1.608-.288-2.176-.659-4.34-.953-6.514-.083-.614-.079-1.403-.308-1.98a.65.65 0 0 0-.598-.391c-.499 0-.759.527-1.057.845a13.5 13.5 0 0 1-2.11 1.843c-1.93 1.356-4.05 1.703-6.339 1.992m8.867-.908.456 4.33h-3.149c.424-1.009 1.143-1.96 1.722-2.887.284-.453.561-1.096.971-1.443m-9.406 6.02c-.127-1.598-.41-3.249-.704-4.824-1.423.448-1.847 2.347-1.189 3.546.399.727 1.097 1.124 1.893 1.278"/><path fill="#0f5f57" d="M192.852 16.533A18.45 18.45 0 0 0 181.17 5.954a19.24 19.24 0 0 0-10.834-.123 15.8 15.8 0 0 0-8.292 6.392 11 11 0 0 0-2.293-2.18 12.23 12.23 0 0 0-7.72-2.057 9.96 9.96 0 0 0-5.728 3.272 10.27 10.27 0 0 0-2.489 5.201 8.8 8.8 0 0 0-3.363.57 8.2 8.2 0 0 0-3.736 2.776 9.04 9.04 0 0 0-1.743 4.313 12.32 12.32 0 0 0 2.017 8.646 14 14 0 0 0 2.067 2.331c.507.47 1.089.854 1.718 1.139a.9.9 0 0 0 1.244-.347.84.84 0 0 0-.274-.94 6 6 0 0 1-1.716-1.463 11 11 0 0 1-1.246-1.833 10.6 10.6 0 0 1-1.119-7.087 7.8 7.8 0 0 1 1.617-3.792 6.7 6.7 0 0 1 2.116-1.76 7 7 0 0 1 2.691-.791c1.01-.11 2.029-.11 3.039 0a.7.7 0 0 0 .821-.57.67.67 0 0 0-.646-.745 20 20 0 0 0-2.017-.395 9.15 9.15 0 0 1 2.487-3.744 7.48 7.48 0 0 1 4.509-2.079 8.8 8.8 0 0 1 3.711.396c1.256.361 2.437.94 3.486 1.708a5.59 5.59 0 0 1 2.493 4.164.81.81 0 0 0 .357.825.83.83 0 0 0 .902 0 .81.81 0 0 0 .357-.825 6.4 6.4 0 0 0-.771-3.568.55.55 0 0 0 .249-.223 13.98 13.98 0 0 1 7.822-5.426 16.6 16.6 0 0 1 9.488.668 16.23 16.23 0 0 1 9.961 9.143 19.95 19.95 0 0 1 1.194 13.878 13 13 0 0 1-1.194 2.824 4.96 4.96 0 0 1-2.064 1.908.84.84 0 0 0-.376 1.088.85.85 0 0 0 1.095.374 6.9 6.9 0 0 0 2.367-1.806 12 12 0 0 0 1.965-3.745 21.6 21.6 0 0 0-.472-15.538"/><g fill="none"><path fill="#0f5f57" d="M36.964 17.826v13.667a2.103 2.103 0 0 1-2.102 2.102H14.887a2.103 2.103 0 0 1-2.102-2.102V17.825Z"/><path fill="#178f84" d="M14.887 33.595h2.103l15.77-15.77H12.784v13.668a2.103 2.103 0 0 0 2.102 2.102"/><path fill="#78eb7b" d="M25.925 25.712a5.25 5.25 0 0 0-2.289-4.342l-2.967 4.342 3.37 4.033a5.24 5.24 0 0 0 1.886-4.033"/><path fill="#ffbfc5" d="M23.636 21.37a5.256 5.256 0 0 0-8.223 4.342h5.257Z"/><path fill="#ffef5e" d="M15.413 25.712a5.257 5.257 0 0 0 8.625 4.033l-3.368-4.033Z"/><path fill="#fff" d="M36.964 17.3h-24.18v-3.154a2.104 2.104 0 0 1 2.103-2.101h19.975a2.103 2.103 0 0 1 2.102 2.102Z"/><path stroke="#191919" stroke-linecap="round" stroke-linejoin="round" d="M34.862 12.048H14.887a2.103 2.103 0 0 0-2.102 2.102v17.872c0 1.162.942 2.103 2.102 2.103h19.975a2.103 2.103 0 0 0 2.102-2.103v-17.87a2.1 2.1 0 0 0-2.102-2.104m-22.077 5.257h24.18"/><path stroke="#191919" d="M22.772 14.935a.264.264 0 1 1 0-.525"/><path stroke="#191919" d="M22.771 14.935a.264.264 0 1 0 0-.525"/><path stroke="#191919" stroke-linecap="round" stroke-linejoin="round" d="M20.67 30.972a5.256 5.256 0 1 0 0-10.513 5.256 5.256 0 0 0 0 10.513"/><path stroke="#191919" stroke-linecap="round" stroke-linejoin="round" d="m23.635 21.376-2.965 4.339 3.368 4.033m-3.368-4.033h-5.258m12.617-4.205h6.307m-6.307 3.154h6.307m-6.307 3.153h6.307"/><path stroke="#191919" d="M16.465 14.94a.264.264 0 0 1 0-.526m0 .526a.264.264 0 0 0 0-.526m3.153.53a.264.264 0 1 1 0-.527m0 .527a.264.264 0 0 0 0-.527"/><path fill="#000" d="M19.924 41.053h-2.352l-.37 1.062h-1.513l2.16-5.832h1.794l2.16 5.832H20.29Zm-1.977-1.082h1.598l-.797-2.32Zm4.63-3.688h2.495q1.113 0 1.707.496.598.493.598 1.407 0 .918-.598 1.414-.594.492-1.707.492h-.992v2.023h-1.504Zm1.503 1.09v1.63h.832q.438 0 .676-.212.238-.215.238-.605t-.238-.602q-.238-.21-.676-.21Zm4.36-1.09h2.496q1.112 0 1.707.496.597.493.597 1.407 0 .918-.597 1.414-.594.492-1.707.492h-.993v2.023H28.44Zm1.503 1.09v1.63h.832q.438 0 .676-.212.238-.215.238-.605t-.238-.602q-.238-.21-.676-.21Z" opacity=".876"/></g></svg>
