<svg xmlns="http://www.w3.org/2000/svg" viewBox="0 0 199.483 46"><metadata>© 2025 Chris Caron. All rights reserved. Apprise logo and associated marks. https://github.com/caronc/apprise</metadata><defs><marker id="a" markerHeight="1" markerWidth="1" orient="auto-start-reverse" overflow="visible" preserveAspectRatio="xMidYMid" refX="0" refY="0" viewBox="0 0 1 1"><path fill="#000" fill-rule="evenodd" stroke="#000" stroke-width=".5pt" d="M2.885 0-1.44 2.5v-5Z"/></marker></defs><path fill="none" d="M0 0h199.483v46H0Z"/><path fill="#2b7935" stroke="#72ad78" stroke-width=".469" d="M45.644 13.992h12.422c1.108 0 2 .892 2 2v3.999c0 1.108-.892 2-2 2H45.644c-1.108 0-2-.892-2-2v-4c0-1.107.892-2 2-2Z"/><path fill="#fff" d="M46.627 18.386v1.193h-.688v-3.344h1.477q.523 0 .798.267.28.266.28.77 0 .51-.275.812t-.734.302Zm0-.573h.642q.537 0 .537-.5 0-.256-.133-.38-.129-.124-.404-.124h-.642Zm2.674 1.38q-.44-.49-.44-1.26 0-.771.44-1.262.445-.49 1.165-.49.724 0 1.17.49.444.486.444 1.284 0 .743-.44 1.239-.435.49-1.17.49-.73 0-1.169-.49m1.17-2.426a.81.81 0 0 0-.67.322q-.252.316-.252.843 0 .528.252.849a.81.81 0 0 0 .67.316.81.81 0 0 0 .664-.316q.257-.317.257-.83 0-.541-.252-.863a.8.8 0 0 0-.67-.32m4.613.487h-.642q-.037-.523-.702-.523a.7.7 0 0 0-.422.114.35.35 0 0 0-.155.299q0 .183.133.275.132.087.5.16l.522.101q.464.091.674.312.211.216.211.61 0 .51-.362.798-.363.285-1.009.284-.642 0-1-.284-.353-.284-.385-.821h.67a.53.53 0 0 0 .21.413q.194.142.542.142.312 0 .49-.12a.37.37 0 0 0 .184-.33.37.37 0 0 0-.142-.311q-.142-.11-.486-.175l-.468-.091q-.51-.096-.725-.303-.216-.207-.215-.596 0-.491.33-.757.335-.27.935-.27.175 0 .335.022.165.024.349.097.183.069.316.183a.8.8 0 0 1 .22.312q.093.197.092.459m2.142-.445v2.77h-.688v-2.77h-1.014v-.574h2.679v.574Z"/><path fill="#505050" d="M53.094 32.282q.026.12.099.183.078.064.29.064a.6.6 0 0 0 .267-.05q.099-.048.099-.137a.12.12 0 0 0-.039-.092.3.3 0 0 0-.127-.063l-.589-.184a.5.5 0 0 1-.099-.032l-.056-.02a.4.4 0 0 1-.067-.036l-.057-.042a.3.3 0 0 1-.056-.06l-.039-.07a.4.4 0 0 1-.032-.096.6.6 0 0 1-.01-.113q0-.293.208-.462.212-.173.575-.173.384 0 .603.173.219.169.226.473h-.476q-.004-.258-.357-.258a.4.4 0 0 0-.208.05q-.078.045-.077.126 0 .056.035.089a.5.5 0 0 0 .137.06l.625.18q.375.108.374.48a.62.62 0 0 1-.166.419.56.56 0 0 1-.258.162 1.2 1.2 0 0 1-.409.064q-.877 0-.9-.635Zm2.395-1.383q.124 0 .24.028a.8.8 0 0 1 .237.102q.123.075.211.191.091.112.148.303a1.5 1.5 0 0 1 .053.515h-1.277q.005.11.018.19.017.079.056.156a.3.3 0 0 0 .12.117.5.5 0 0 0 .201.038q.283 0 .378-.24h.487a.8.8 0 0 1-.321.452.96.96 0 0 1-.561.166q-.405 0-.639-.261-.233-.266-.233-.723 0-.48.237-.755.236-.28.645-.28m.378.811a.55.55 0 0 0-.117-.32.33.33 0 0 0-.268-.114q-.324 0-.374.434Zm.885-.78h.494v.375a.7.7 0 0 1 .219-.3.5.5 0 0 1 .37-.102v.5a1 1 0 0 0-.155-.014q-.435 0-.434.434v1.013h-.494Zm2.374 1.906h-.518l-.667-1.905h.522l.413 1.393.385-1.393h.522Zm1.433-1.905v1.905h-.494V30.93Zm0-.667v.44h-.494v-.44Zm1.284 1.034q-.402 0-.402.624 0 .28.105.437a.34.34 0 0 0 .297.16.3.3 0 0 0 .226-.078.6.6 0 0 0 .127-.265h.472a.8.8 0 0 1-.26.543.82.82 0 0 1-.569.198q-.423 0-.66-.261-.232-.261-.232-.734 0-.487.236-.755.237-.268.663-.268.357 0 .575.197.222.198.247.547h-.472a.5.5 0 0 0-.124-.264q-.077-.081-.23-.081m1.954-.4q.124 0 .24.03a.8.8 0 0 1 .236.101q.124.075.212.191a.9.9 0 0 1 .148.303 1.5 1.5 0 0 1 .053.515H63.41q.004.11.018.19.017.079.056.156a.3.3 0 0 0 .12.117.5.5 0 0 0 .201.038q.282 0 .378-.24h.487a.8.8 0 0 1-.321.452.96.96 0 0 1-.561.166q-.406 0-.639-.261-.233-.266-.233-.723 0-.48.237-.755.236-.28.645-.28m.378.812a.55.55 0 0 0-.117-.32.33.33 0 0 0-.268-.114q-.324 0-.374.434Zm1.496-.6h-.6v-.328q.65 0 .765-.448h.328v2.502h-.493Zm1.827 1.21v.516h-.53v-.515Zm0-1.319v.515h-.53V31Zm.91-.684h.236l-.726 2.568h-.237Zm.98 0h.237l-.727 2.568h-.236Zm1.285.98q-.402 0-.402.625 0 .28.105.437a.34.34 0 0 0 .297.16.3.3 0 0 0 .226-.078.6.6 0 0 0 .127-.265h.472a.8.8 0 0 1-.26.543.82.82 0 0 1-.569.198q-.423 0-.66-.261-.232-.261-.232-.734 0-.487.236-.755.237-.268.663-.268.357 0 .575.197.223.198.247.547h-.472a.5.5 0 0 0-.124-.264q-.078-.081-.23-.081m1.16-.366h.494v.374a.7.7 0 0 1 .22-.3.5.5 0 0 1 .37-.102v.5a1 1 0 0 0-.156-.014q-.434 0-.434.434v1.013h-.493Zm2.177-.032q.123 0 .24.028a.8.8 0 0 1 .236.102q.124.075.212.191a.9.9 0 0 1 .148.303 1.5 1.5 0 0 1 .053.515h-1.277q.003.11.018.19.017.079.056.156a.3.3 0 0 0 .12.117.5.5 0 0 0 .201.038q.282 0 .378-.24h.487a.8.8 0 0 1-.322.452.96.96 0 0 1-.56.166q-.406 0-.639-.261-.233-.266-.233-.723 0-.48.237-.755.236-.28.645-.28Zm.378.811a.55.55 0 0 0-.117-.32.33.33 0 0 0-.268-.114q-.323 0-.374.434Zm1.598 1.207a.7.7 0 0 1-.579-.29 1.14 1.14 0 0 1-.222-.716q0-.43.23-.72a.7.7 0 0 1 .57-.292q.346 0 .526.279v-.914h.494v2.572h-.494v-.194a.6.6 0 0 1-.525.275m.11-1.605a.35.35 0 0 0-.3.169.73.73 0 0 0-.117.43q0 .261.116.427.117.165.3.166a.35.35 0 0 0 .3-.162.7.7 0 0 0 .116-.423.75.75 0 0 0-.116-.438.35.35 0 0 0-.3-.17m2.162-.413q.123 0 .24.028a.8.8 0 0 1 .236.102q.123.075.212.191.09.112.148.303a1.5 1.5 0 0 1 .053.515h-1.278q.004.11.018.19.017.079.057.156a.3.3 0 0 0 .12.117.5.5 0 0 0 .2.038q.284 0 .378-.24h.487a.8.8 0 0 1-.321.452.96.96 0 0 1-.561.166q-.405 0-.638-.261-.233-.266-.233-.723 0-.48.236-.755.237-.28.646-.28m.377.811a.55.55 0 0 0-.116-.32.33.33 0 0 0-.269-.114q-.324 0-.373.434Zm.885-.78h.494v.276a.65.65 0 0 1 .572-.307q.303 0 .47.173.168.172.168.487v1.277h-.493V31.66q0-.342-.318-.342a.4.4 0 0 0-.29.102.36.36 0 0 0-.109.272v1.143h-.493Zm3.02.04v.328h-.275v1.037q0 .126.032.17.032.038.13.038a1 1 0 0 0 .113-.01v.345a1 1 0 0 1-.286.039q-.483 0-.483-.448v-1.171h-.243v-.328h.243v-.512h.494v.512Zm.847-.04v1.906h-.494V30.93Zm0-.666v.44h-.494v-.44Zm.967 2.653a.57.57 0 0 1-.42-.155.56.56 0 0 1-.159-.417q0-.504.56-.6l.199-.035a2 2 0 0 0 .151-.02l.067-.018a.2.2 0 0 0 .074-.025l.05-.035a.12.12 0 0 0 .042-.053.2.2 0 0 0 .01-.07q0-.192-.285-.191-.184 0-.258.056-.075.057-.091.205h-.477q.046-.66.815-.66.78 0 .78.585v1.059q0 .13.113.233v.06h-.537a.3.3 0 0 1-.056-.19q-.261.27-.578.27m.575-.847v-.134a1 1 0 0 1-.209.06l-.169.032a.46.46 0 0 0-.219.092.22.22 0 0 0-.063.169q0 .105.07.17.075.06.198.06a.37.37 0 0 0 .29-.117.5.5 0 0 0 .102-.332m1.425-1.806v2.572h-.494v-2.572Zm.818 2.018q.025.12.099.183.078.064.29.064a.6.6 0 0 0 .267-.05q.1-.048.1-.137a.12.12 0 0 0-.04-.092.3.3 0 0 0-.127-.063L87.171 32a.5.5 0 0 1-.099-.032l-.056-.02a.4.4 0 0 1-.067-.036l-.056-.042a.3.3 0 0 1-.057-.06l-.039-.07a.4.4 0 0 1-.032-.096.6.6 0 0 1-.01-.113q0-.293.208-.462.212-.173.575-.173.385 0 .603.173.219.169.226.473h-.476q-.003-.258-.356-.258a.4.4 0 0 0-.209.05q-.077.045-.077.126 0 .056.035.089a.5.5 0 0 0 .138.06l.624.18q.374.108.374.48a.62.62 0 0 1-.166.419.57.57 0 0 1-.257.162 1.2 1.2 0 0 1-.41.064q-.877 0-.9-.635Zm2.106-1.965h.237l-.727 2.568h-.236Zm1.19 2.6a.7.7 0 0 1-.58-.29 1.14 1.14 0 0 1-.222-.716q0-.43.23-.72a.7.7 0 0 1 .571-.292q.346 0 .526.279v-.914h.494v2.572h-.494v-.194a.6.6 0 0 1-.526.275m.108-1.605a.35.35 0 0 0-.3.169.73.73 0 0 0-.116.43q0 .261.117.427.115.165.3.166a.36.36 0 0 0 .3-.162.7.7 0 0 0 .116-.423.75.75 0 0 0-.117-.438.35.35 0 0 0-.3-.17m1.88-.381v1.905h-.493V30.93Zm0-.667v.44h-.493v-.44Zm.477.667h.494v.374a.7.7 0 0 1 .219-.3.5.5 0 0 1 .37-.102v.5a1 1 0 0 0-.155-.014q-.434 0-.434.434v1.013h-.494Zm2.177-.032q.123 0 .24.028a.8.8 0 0 1 .236.102q.123.075.212.191.09.112.148.303a1.5 1.5 0 0 1 .053.515H94.72q.003.11.017.19.017.079.057.156a.3.3 0 0 0 .12.117.5.5 0 0 0 .2.038q.283 0 .378-.24h.487a.8.8 0 0 1-.32.452.96.96 0 0 1-.562.166q-.405 0-.638-.261-.234-.266-.233-.723 0-.48.236-.755.237-.28.646-.28m.377.811a.55.55 0 0 0-.116-.32.33.33 0 0 0-.268-.114q-.325 0-.374.434Zm1.694-.412q-.403 0-.403.624 0 .28.106.437a.34.34 0 0 0 .296.16.3.3 0 0 0 .226-.078.6.6 0 0 0 .127-.265h.473a.8.8 0 0 1-.261.543.82.82 0 0 1-.568.198q-.423 0-.66-.261-.233-.261-.233-.734 0-.487.237-.755.236-.268.663-.268.357 0 .575.197.222.198.247.547h-.473a.5.5 0 0 0-.123-.264q-.078-.081-.23-.081m2.017-.328v.328h-.275v1.037q0 .126.032.17.032.038.13.038a1 1 0 0 0 .113-.01v.345a1 1 0 0 1-.285.039q-.484 0-.484-.448v-1.171h-.243v-.328h.243v-.512h.494v.512Zm.847-.04v1.906h-.494V30.93Zm0-.666v.44h-.494v-.44Zm1.326.635q.449 0 .695.272.25.267.251.751 0 .459-.254.727t-.688.268q-.44 0-.691-.268-.25-.271-.251-.741 0-.47.251-.737.25-.272.687-.272m.004.399a.39.39 0 0 0-.325.169.73.73 0 0 0-.123.44q0 .273.123.442.124.17.325.17a.38.38 0 0 0 .321-.167.7.7 0 0 0 .127-.437q0-.282-.123-.448a.38.38 0 0 0-.325-.17m1.312-.367h.494v.275a.65.65 0 0 1 .572-.307q.303 0 .469.173.17.172.169.487v1.277h-.494v-1.17q0-.342-.317-.342a.4.4 0 0 0-.289.102.36.36 0 0 0-.11.272v1.143h-.494Zm2.159.208q.004-.23.06-.402a.8.8 0 0 1 .145-.268.8.8 0 0 1 .43-.236 1 1 0 0 1 .223-.022q.387 0 .631.226.247.225.247.585 0 .223-.088.367-.089.145-.335.318a.7.7 0 0 0-.198.18.5.5 0 0 0-.039.24h-.437v-.05q0-.176.06-.307a.7.7 0 0 1 .152-.215q.087-.081.176-.152a.7.7 0 0 0 .148-.162.42.42 0 0 0-.042-.497.34.34 0 0 0-.265-.117.35.35 0 0 0-.279.134.52.52 0 0 0-.109.339v.039Zm1.133 1.182v.515h-.529v-.515Zm2.049-1.422q.36 0 .579.29.219.288.219.722t-.23.724a.7.7 0 0 1-.568.285.57.57 0 0 1-.529-.31v.995h-.494V30.93h.494v.282a.57.57 0 0 1 .529-.314m.187.582a.356.356 0 0 0-.603-.004.76.76 0 0 0-.113.434q0 .27.113.434a.358.358 0 0 0 .603-.003.7.7 0 0 0 .117-.423.74.74 0 0 0-.117-.438m1.471 1.436a.57.57 0 0 1-.419-.155.56.56 0 0 1-.159-.417q0-.504.561-.6l.197-.035a1 1 0 0 0 .152-.02l.067-.018a.2.2 0 0 0 .074-.025l.05-.035a.12.12 0 0 0 .042-.053.2.2 0 0 0 .01-.07q0-.192-.285-.191-.184 0-.258.056-.074.057-.092.205h-.476q.046-.66.815-.66.78 0 .78.585v1.059q0 .13.113.233v.06h-.537a.3.3 0 0 1-.056-.19q-.261.27-.579.27m.575-.847v-.134a1 1 0 0 1-.208.06l-.169.032a.46.46 0 0 0-.219.092.22.22 0 0 0-.063.169q0 .105.07.17.075.06.198.06a.36.36 0 0 0 .289-.117.5.5 0 0 0 .102-.332m.932-1.14h.494v.375a.67.67 0 0 1 .218-.3.5.5 0 0 1 .371-.102v.5a1 1 0 0 0-.155-.014q-.435 0-.434.434v1.013h-.494Zm1.873 1.987a.57.57 0 0 1-.42-.155.56.56 0 0 1-.159-.417q0-.504.561-.6l.198-.035a2 2 0 0 0 .152-.02l.067-.018a.2.2 0 0 0 .074-.025l.049-.035a.12.12 0 0 0 .042-.053.2.2 0 0 0 .011-.07q0-.192-.286-.191-.183 0-.257.056-.075.057-.092.205h-.476q.045-.66.815-.66.779 0 .779.585v1.059q0 .13.113.233v.06h-.536a.3.3 0 0 1-.056-.19q-.261.27-.579.27m.575-.847v-.134a1 1 0 0 1-.208.06l-.169.032a.45.45 0 0 0-.219.092.22.22 0 0 0-.064.169q0 .105.071.17.074.06.197.06a.37.37 0 0 0 .29-.117.5.5 0 0 0 .102-.332m.931-1.14h.491v.237a.8.8 0 0 1 .24-.205.6.6 0 0 1 .282-.063q.374 0 .518.282a.67.67 0 0 1 .558-.282q.285 0 .444.155.163.156.163.434v1.348h-.494v-1.27a.23.23 0 0 0-.074-.18.27.27 0 0 0-.194-.067.33.33 0 0 0-.251.099.4.4 0 0 0-.088.275v1.143h-.494v-1.27a.23.23 0 0 0-.074-.18.27.27 0 0 0-.194-.067.33.33 0 0 0-.251.099.4.4 0 0 0-.088.275v1.143h-.494Zm3.948-.031q.123 0 .24.028a.8.8 0 0 1 .236.102q.124.075.212.191.091.112.148.303a1.5 1.5 0 0 1 .053.515h-1.277q.003.11.018.19.017.079.056.156.042.074.12.117a.5.5 0 0 0 .201.038q.282 0 .377-.24h.487a.8.8 0 0 1-.321.452.96.96 0 0 1-.561.166q-.405 0-.638-.261-.233-.266-.233-.723 0-.48.236-.755.237-.28.646-.28m.377.811a.54.54 0 0 0-.116-.32.33.33 0 0 0-.268-.114q-.324 0-.374.434Zm1.743-.74v.328h-.275v1.037q0 .126.032.17.031.038.13.038a1 1 0 0 0 .113-.01v.345a1 1 0 0 1-.286.039q-.483 0-.483-.448v-1.171h-.243v-.328h.243v-.512h.494v.512Zm1.129-.071q.123 0 .24.028a.8.8 0 0 1 .236.102q.124.075.212.191.091.112.148.303.057.187.057.43 0 .043-.004.085h-1.277q.003.11.018.19.017.079.056.156.042.074.12.117a.5.5 0 0 0 .201.038q.282 0 .378-.24h.486a.8.8 0 0 1-.321.452.96.96 0 0 1-.561.166q-.405 0-.638-.261-.233-.266-.233-.723 0-.48.236-.755.237-.28.646-.28m.377.811a.54.54 0 0 0-.116-.32.33.33 0 0 0-.268-.114q-.324 0-.374.434Zm.886-.78h.494v.375a.7.7 0 0 1 .219-.3.5.5 0 0 1 .37-.102v.5a1 1 0 0 0-.155-.014q-.434 0-.434.434v1.013h-.494Zm3.037.456v.42h-1.707v-.42Zm0 .846v.42h-1.707v-.42Zm-72.972 4.465q.026.12.099.183.078.063.29.063a.6.6 0 0 0 .267-.049q.099-.05.099-.138a.12.12 0 0 0-.039-.091.3.3 0 0 0-.127-.064l-.589-.183a.5.5 0 0 1-.099-.032l-.056-.021a.3.3 0 0 1-.067-.035l-.057-.043a.3.3 0 0 1-.056-.06l-.039-.07a.4.4 0 0 1-.032-.096.6.6 0 0 1-.01-.112q0-.294.208-.463.212-.172.575-.172.384 0 .603.172.219.17.226.473h-.476q-.004-.258-.357-.257a.4.4 0 0 0-.208.05q-.078.045-.077.126 0 .057.035.088t.137.06l.625.18q.375.11.374.48a.62.62 0 0 1-.166.42.56.56 0 0 1-.258.162 1.2 1.2 0 0 1-.409.064q-.877 0-.9-.636Zm2.395-1.383q.124 0 .24.028a.8.8 0 0 1 .237.102q.123.075.211.19.091.114.148.304a1.5 1.5 0 0 1 .053.515h-1.277q.005.11.018.19.017.078.056.156a.3.3 0 0 0 .12.116.5.5 0 0 0 .201.04q.283 0 .378-.24h.487a.8.8 0 0 1-.321.45.96.96 0 0 1-.561.167q-.405 0-.639-.261-.233-.265-.233-.724 0-.48.237-.755.236-.279.645-.278m.378.811a.55.55 0 0 0-.117-.321.33.33 0 0 0-.268-.113q-.324 0-.374.434Zm.885-.78h.494v.374a.7.7 0 0 1 .219-.3.5.5 0 0 1 .37-.102v.501a1 1 0 0 0-.155-.014q-.435 0-.434.434v1.012h-.494Zm2.374 1.905h-.518l-.667-1.905h.522l.413 1.394.385-1.394h.522Zm1.433-1.905v1.905h-.494V35.34Zm0-.666v.44h-.494v-.44Zm1.284 1.033q-.402 0-.402.625 0 .278.105.437a.34.34 0 0 0 .297.159.3.3 0 0 0 .226-.078.6.6 0 0 0 .127-.264h.472a.8.8 0 0 1-.26.543.82.82 0 0 1-.569.198q-.423 0-.66-.261-.232-.263-.232-.734 0-.488.236-.755.237-.268.663-.268.357 0 .575.197.222.198.247.547h-.472a.53.53 0 0 0-.124-.265q-.077-.08-.23-.08m1.954-.398q.124 0 .24.028a.8.8 0 0 1 .236.102q.124.075.212.19a.9.9 0 0 1 .148.304 1.5 1.5 0 0 1 .053.515H63.41q.004.11.018.19.017.078.056.156a.3.3 0 0 0 .12.116.5.5 0 0 0 .201.04q.282 0 .378-.24h.487a.8.8 0 0 1-.321.45.96.96 0 0 1-.561.167q-.406 0-.639-.261-.233-.265-.233-.724 0-.48.237-.755.236-.279.645-.278m.378.811a.55.55 0 0 0-.117-.321.33.33 0 0 0-.268-.113q-.324 0-.374.434Zm2.473-.635a.8.8 0 0 1-.092.377.9.9 0 0 1-.226.286 4 4 0 0 1-.282.212q-.145.095-.279.212a.7.7 0 0 0-.19.232h1.058v.441h-1.7q.017-.345.137-.546.124-.206.441-.427.412-.29.526-.427a.54.54 0 0 0 .113-.35.42.42 0 0 0-.095-.292.32.32 0 0 0-.258-.11.32.32 0 0 0-.264.117.5.5 0 0 0-.092.324v.082h-.473l-.003-.089q0-.395.215-.614.218-.222.606-.222.396 0 .625.215.233.216.233.579m.85 1.245v.515h-.53v-.515Zm0-1.32v.516h-.53v-.515Zm.91-.683h.236l-.726 2.568h-.237Zm.98 0h.237l-.727 2.568h-.236Zm1.285.98q-.402 0-.402.625 0 .278.105.437a.34.34 0 0 0 .297.159.3.3 0 0 0 .226-.078.6.6 0 0 0 .127-.264h.472a.8.8 0 0 1-.26.543.82.82 0 0 1-.569.198q-.423 0-.66-.261-.232-.263-.232-.734 0-.488.236-.755.237-.268.663-.268.357 0 .575.197.223.198.247.547h-.472a.5.5 0 0 0-.124-.265q-.078-.08-.23-.08m1.16-.367h.494v.374a.7.7 0 0 1 .22-.3.5.5 0 0 1 .37-.102v.501a1 1 0 0 0-.156-.014q-.434 0-.434.434v1.012h-.493Zm2.177-.031q.123 0 .24.028a.8.8 0 0 1 .236.102q.124.075.212.19a.9.9 0 0 1 .148.304 1.5 1.5 0 0 1 .053.515h-1.277q.003.11.018.19.017.078.056.156a.3.3 0 0 0 .12.116.5.5 0 0 0 .201.04q.282 0 .378-.24h.487a.8.8 0 0 1-.322.45.96.96 0 0 1-.56.167q-.406 0-.639-.261-.233-.265-.233-.724 0-.48.237-.755.236-.279.645-.278m.378.811a.55.55 0 0 0-.117-.321.33.33 0 0 0-.268-.113q-.323 0-.374.434Zm1.598 1.207a.7.7 0 0 1-.579-.29 1.14 1.14 0 0 1-.222-.716q0-.43.23-.72a.7.7 0 0 1 .57-.292q.346 0 .526.278v-.913h.494v2.571h-.494v-.194a.6.6 0 0 1-.525.276m.11-1.606a.35.35 0 0 0-.3.17.73.73 0 0 0-.117.43q0 .26.116.427.117.166.3.166a.35.35 0 0 0 .3-.163.7.7 0 0 0 .116-.423.75.75 0 0 0-.116-.437.35.35 0 0 0-.3-.17m2.162-.412q.123 0 .24.028a.8.8 0 0 1 .236.102q.123.075.212.19.09.114.148.304a1.5 1.5 0 0 1 .053.515h-1.278q.004.11.018.19.017.078.057.156a.3.3 0 0 0 .12.116.5.5 0 0 0 .2.04q.284 0 .378-.24h.487a.8.8 0 0 1-.321.45.96.96 0 0 1-.561.167q-.405 0-.638-.261-.233-.265-.233-.724 0-.48.236-.755.237-.279.646-.278m.377.811a.55.55 0 0 0-.116-.321.33.33 0 0 0-.269-.113q-.324 0-.373.434Zm.885-.78h.494v.276a.65.65 0 0 1 .572-.307q.303 0 .47.172.168.174.168.487v1.277h-.493v-1.174q0-.343-.318-.343a.4.4 0 0 0-.29.103.35.35 0 0 0-.109.271v1.143h-.493Zm3.02.04v.327h-.275v1.037q0 .128.032.17.032.039.13.039a1 1 0 0 0 .113-.011v.346a1 1 0 0 1-.286.039q-.483 0-.483-.448v-1.172h-.243v-.328h.243v-.511h.494v.511Zm.847-.04v1.905h-.494V35.34Zm0-.666v.44h-.494v-.44Zm.967 2.653a.57.57 0 0 1-.42-.156.56.56 0 0 1-.159-.416q0-.504.56-.6l.199-.035a2 2 0 0 0 .151-.021l.067-.018a.2.2 0 0 0 .074-.025l.05-.035a.13.13 0 0 0 .042-.053.2.2 0 0 0 .01-.07q0-.19-.285-.19-.184 0-.258.056t-.091.204h-.477q.046-.66.815-.66.78 0 .78.586v1.059q0 .13.113.232v.06h-.537a.3.3 0 0 1-.056-.19q-.261.272-.578.272m.575-.847v-.134a1 1 0 0 1-.209.06l-.169.032a.46.46 0 0 0-.219.091.22.22 0 0 0-.063.17q0 .106.07.169.075.06.198.06a.37.37 0 0 0 .29-.116.5.5 0 0 0 .102-.332m1.425-1.806v2.571h-.494v-2.571Zm.818 2.017q.025.12.099.184.078.063.29.063a.6.6 0 0 0 .267-.049q.1-.05.1-.138a.12.12 0 0 0-.04-.091.3.3 0 0 0-.127-.064l-.589-.183a.5.5 0 0 1-.099-.032l-.056-.021a.3.3 0 0 1-.067-.035l-.056-.043a.3.3 0 0 1-.057-.06l-.039-.07a.4.4 0 0 1-.032-.096.6.6 0 0 1-.01-.112q0-.294.208-.463.212-.172.575-.172.385 0 .603.172.219.17.226.473h-.476q-.003-.258-.356-.257a.4.4 0 0 0-.209.05q-.077.045-.077.126 0 .057.035.088t.138.06l.624.18q.374.11.374.48a.62.62 0 0 1-.166.42.56.56 0 0 1-.257.162 1.2 1.2 0 0 1-.41.064q-.877 0-.9-.636Zm2.106-1.964h.237l-.727 2.568h-.236Zm1.19 2.6a.7.7 0 0 1-.58-.29 1.14 1.14 0 0 1-.222-.716q0-.43.23-.72a.7.7 0 0 1 .571-.292q.346 0 .526.278v-.913h.494v2.571h-.494v-.194a.6.6 0 0 1-.526.276m.108-1.606a.35.35 0 0 0-.3.17.73.73 0 0 0-.116.43q0 .26.117.427.115.166.3.166a.36.36 0 0 0 .3-.163.7.7 0 0 0 .116-.423.75.75 0 0 0-.117-.437.35.35 0 0 0-.3-.17m1.88-.38v1.904h-.493V35.34Zm0-.667v.44h-.493v-.44Zm.477.666h.494v.374a.7.7 0 0 1 .219-.3.5.5 0 0 1 .37-.102v.501a1 1 0 0 0-.155-.014q-.434 0-.434.434v1.012h-.494Zm2.177-.031q.123 0 .24.028a.8.8 0 0 1 .236.102q.123.075.212.19.09.114.148.304a1.5 1.5 0 0 1 .053.515H94.72q.003.11.017.19.017.078.057.156a.3.3 0 0 0 .12.116.5.5 0 0 0 .2.04q.283 0 .378-.24h.487a.8.8 0 0 1-.32.45.96.96 0 0 1-.562.167q-.405 0-.638-.261-.234-.265-.233-.724 0-.48.236-.755.237-.279.646-.278m.377.811a.55.55 0 0 0-.116-.321.33.33 0 0 0-.268-.113q-.325 0-.374.434Zm1.694-.413q-.403 0-.403.625 0 .278.106.437a.34.34 0 0 0 .296.159.3.3 0 0 0 .226-.078.6.6 0 0 0 .127-.264h.473a.8.8 0 0 1-.261.543.82.82 0 0 1-.568.198q-.423 0-.66-.261-.233-.263-.233-.734 0-.488.237-.755.236-.268.663-.268.357 0 .575.197.222.198.247.547h-.473a.5.5 0 0 0-.123-.265q-.078-.08-.23-.08m2.017-.328v.328h-.275v1.037q0 .128.032.17.032.039.13.039a1 1 0 0 0 .113-.011v.346a1 1 0 0 1-.285.039q-.484 0-.484-.448V35.71h-.243v-.328h.243v-.511h.494v.511Zm.847-.039v1.905h-.494V35.34Zm0-.666v.44h-.494v-.44Zm1.326.635q.449 0 .695.271.25.269.251.752 0 .458-.254.726-.254.27-.688.269-.44 0-.691-.269-.25-.271-.251-.74 0-.47.251-.738.25-.27.687-.271m.004.398a.39.39 0 0 0-.325.17.73.73 0 0 0-.123.44q0 .273.123.442.124.169.325.169a.38.38 0 0 0 .321-.166.7.7 0 0 0 .127-.437q0-.283-.123-.448a.38.38 0 0 0-.325-.17m1.312-.367h.494v.276a.65.65 0 0 1 .572-.307q.303 0 .469.172.17.174.169.487v1.277h-.494v-1.174q0-.343-.317-.343a.4.4 0 0 0-.289.103.35.35 0 0 0-.11.271v1.143h-.494Zm2.159.208q.004-.228.06-.402a.8.8 0 0 1 .145-.268.8.8 0 0 1 .43-.236 1 1 0 0 1 .223-.021q.387 0 .631.225.247.226.247.586 0 .222-.088.367-.089.144-.335.318a.7.7 0 0 0-.198.18.5.5 0 0 0-.039.24h-.437v-.05q0-.177.06-.307a.7.7 0 0 1 .152-.215q.087-.081.176-.152a.7.7 0 0 0 .148-.162.42.42 0 0 0-.042-.497.34.34 0 0 0-.265-.117.35.35 0 0 0-.279.134.52.52 0 0 0-.109.339v.038Zm1.133 1.182v.515h-.529v-.515Zm2.049-1.421q.36 0 .579.289.219.29.219.723 0 .434-.23.723a.7.7 0 0 1-.568.286.57.57 0 0 1-.529-.31v.994h-.494V35.34h.494v.283a.57.57 0 0 1 .529-.314m.187.582a.356.356 0 0 0-.603-.004.76.76 0 0 0-.113.434q0 .269.113.434a.358.358 0 0 0 .603-.004.7.7 0 0 0 .117-.423.74.74 0 0 0-.117-.437m1.471 1.436a.57.57 0 0 1-.419-.156.56.56 0 0 1-.159-.416q0-.504.561-.6l.197-.035a1 1 0 0 0 .152-.021l.067-.018a.2.2 0 0 0 .074-.025q.021-.013.05-.035a.12.12 0 0 0 .042-.053.2.2 0 0 0 .01-.07q0-.19-.285-.19-.184 0-.258.056t-.092.204h-.476q.046-.66.815-.66.78 0 .78.586v1.059q0 .13.113.232v.06h-.537a.3.3 0 0 1-.056-.19q-.261.272-.579.272m.575-.847v-.134a1 1 0 0 1-.208.06l-.169.032a.46.46 0 0 0-.219.091.22.22 0 0 0-.063.17q0 .106.07.169.075.06.198.06a.36.36 0 0 0 .289-.116.5.5 0 0 0 .102-.332m.932-1.14h.494v.374a.67.67 0 0 1 .218-.3.5.5 0 0 1 .371-.102v.501a1 1 0 0 0-.155-.014q-.435 0-.434.434v1.012h-.494Zm1.873 1.986a.57.57 0 0 1-.42-.155.56.56 0 0 1-.159-.416q0-.504.561-.6l.198-.035a2 2 0 0 0 .152-.021l.067-.018a.2.2 0 0 0 .074-.025q.02-.013.049-.035a.12.12 0 0 0 .042-.053.2.2 0 0 0 .011-.07q0-.19-.286-.19-.183 0-.257.056t-.092.204h-.476q.045-.66.815-.66.779 0 .779.586v1.059q0 .13.113.232v.06h-.536a.3.3 0 0 1-.056-.19q-.261.272-.579.272m.575-.846v-.134a1 1 0 0 1-.208.06l-.169.032a.45.45 0 0 0-.219.091.22.22 0 0 0-.064.17q0 .106.071.169.074.06.197.06a.37.37 0 0 0 .29-.116.5.5 0 0 0 .102-.332m.931-1.14h.491v.237a.8.8 0 0 1 .24-.205.6.6 0 0 1 .282-.063q.374 0 .518.282a.67.67 0 0 1 .558-.282q.285 0 .444.155.163.155.163.434v1.347h-.494v-1.27a.23.23 0 0 0-.074-.18.27.27 0 0 0-.194-.067.33.33 0 0 0-.251.1.4.4 0 0 0-.088.274v1.143h-.494v-1.27a.23.23 0 0 0-.074-.18.27.27 0 0 0-.194-.067.33.33 0 0 0-.251.1.4.4 0 0 0-.088.274v1.143h-.494Zm3.948-.031q.123 0 .24.028a.8.8 0 0 1 .236.102q.124.075.212.19.091.114.148.304a1.5 1.5 0 0 1 .053.515h-1.277q.003.11.018.19.017.078.056.156.042.075.12.116a.5.5 0 0 0 .201.04q.282 0 .377-.24h.487a.8.8 0 0 1-.321.45.96.96 0 0 1-.561.167q-.405 0-.638-.261-.233-.265-.233-.724 0-.48.236-.755.237-.279.646-.278m.377.811a.54.54 0 0 0-.116-.321.33.33 0 0 0-.268-.113q-.324 0-.374.434Zm1.743-.74v.327h-.275v1.037q0 .128.032.17.031.039.13.039a1 1 0 0 0 .113-.011v.346a1 1 0 0 1-.286.039q-.483 0-.483-.448v-1.172h-.243v-.328h.243v-.511h.494v.511Zm1.129-.071q.123 0 .24.028a.8.8 0 0 1 .236.102q.124.075.212.19.091.114.148.304.057.187.057.43 0 .043-.004.085h-1.277q.003.11.018.19.017.078.056.156.042.075.12.116a.5.5 0 0 0 .201.04q.282 0 .378-.24h.486a.8.8 0 0 1-.321.45.96.96 0 0 1-.561.167q-.405 0-.638-.261-.233-.265-.233-.724 0-.48.236-.755.237-.279.646-.278m.377.811a.54.54 0 0 0-.116-.321.33.33 0 0 0-.268-.113q-.324 0-.374.434Zm.886-.78h.494v.374a.7.7 0 0 1 .219-.3.5.5 0 0 1 .37-.102v.501a1 1 0 0 0-.155-.014q-.434 0-.434.434v1.012h-.494Zm3.037.455v.42h-1.707v-.42Zm0 .847v.42h-1.707v-.42ZM53.21 41.14v.515h-.529v-.515Zm.882 0v.515h-.529v-.515Zm.882 0v.515h-.529v-.515Z"/><path d="M54.825 28.615h-.593v-.27a.78.78 0 0 1-.686.368q-.364 0-.567-.208-.2-.207-.199-.584v-1.592h.593v1.47q0 .41.38.41.217 0 .348-.123a.43.43 0 0 0 .131-.326v-1.43h.593Zm.55-2.286h.593v.449a.8.8 0 0 1 .262-.36.6.6 0 0 1 .445-.123v.601a1 1 0 0 0-.187-.016q-.52 0-.52.52v1.215h-.593Zm2.252-.8v3.086h-.593V25.53Zm.982 2.422q.03.144.119.22.093.076.347.076.207 0 .322-.06.118-.059.118-.164a.14.14 0 0 0-.046-.11.4.4 0 0 0-.153-.077l-.707-.22a.6.6 0 0 1-.118-.038l-.068-.025a.4.4 0 0 1-.08-.043l-.068-.05a.3.3 0 0 1-.068-.072l-.046-.085a.5.5 0 0 1-.038-.114.7.7 0 0 1-.013-.136q0-.351.25-.554.253-.208.69-.208.461 0 .724.208a.7.7 0 0 1 .27.567h-.571q-.004-.31-.428-.31a.46.46 0 0 0-.25.06q-.093.056-.093.152 0 .068.043.106a.6.6 0 0 0 .165.072l.75.216q.447.132.448.576a.7.7 0 0 1-.047.258.8.8 0 0 1-.152.246.7.7 0 0 1-.31.194q-.206.077-.49.077-1.055 0-1.08-.762Zm2.494.046v.618h-.635v-.618Zm0-1.583v.618h-.635v-.618Z"/><path fill="#3d3d3d" d="M63.747 16.552h.307l-.945 3.338h-.307Zm.619.798h.642v.357a.84.84 0 0 1 .743-.399q.394 0 .61.225.22.224.22.633v1.66h-.642V18.3q0-.445-.413-.445a.53.53 0 0 0-.376.133.46.46 0 0 0-.142.353v1.486h-.642Zm3.916-.042q.583 0 .904.353.325.349.325.977 0 .597-.33.945t-.894.349q-.573 0-.899-.349-.326-.352-.326-.963 0-.61.326-.959.325-.353.894-.353m.005.518a.5.5 0 0 0-.422.22q-.16.22-.16.574 0 .352.16.573t.422.22q.257 0 .417-.215.165-.22.165-.569 0-.367-.16-.582a.49.49 0 0 0-.422-.22m2.82-.426v.427h-.357v1.348q0 .165.041.22.041.05.17.05.05 0 .146-.013v.45q-.155.05-.371.05-.628 0-.628-.583v-1.523h-.317V17.4h.317v-.665h.642v.665Zm1.101-.05v2.476h-.642V17.35Zm0-.867v.573h-.642v-.573Zm1.757.917v.427h-.381v1.999h-.642v-2h-.349V17.4h.349v-.298q0-.62.633-.62.187 0 .367.015v.481a1 1 0 0 0-.184-.014q-.174 0-.174.193v.243Zm1.105 2.545v-.018l-.922-2.577h.706l.546 1.802.514-1.802h.66l-1.018 2.93-.018.06a.3.3 0 0 1-.032.078l-.037.078a.2.2 0 0 1-.05.082l-.074.074a.3.3 0 0 1-.105.073q-.056.027-.129.055a.7.7 0 0 1-.17.037 1.5 1.5 0 0 1-.44-.005v-.481a.7.7 0 0 0 .17.027q.17 0 .284-.12a.4.4 0 0 0 .115-.293"/><path fill="none" stroke="#000" stroke-width=".757" marker-end="url(#a)" d="M45.022 23.831h81.541"/><g fill="#ccc"><path d="M152.779 14.518v.04c1.095.152 2.245.687 3.224 1.196 1.115.578 2.182 1.296 2.977 2.304 2.236 2.835 2.165 7.466-.002 10.31-1.082 1.42-2.828 2.327-4.437 2.944-.573.22-1.191.472-1.8.557.179.078.375.005.563 0a8.3 8.3 0 0 0 1.65-.217c2.387-.546 4.662-2.146 5.646-4.53 1.271-3.081 1.134-7.093-1.116-9.686a8.35 8.35 0 0 0-3.143-2.239c-1.122-.461-2.359-.678-3.562-.679"/><path d="M153.154 14.518v.04c1.095.152 2.244.687 3.224 1.196 1.115.578 2.182 1.296 2.977 2.304 2.236 2.835 2.165 7.466-.002 10.31-1.082 1.42-2.828 2.327-4.437 2.944-.573.22-1.191.472-1.8.557.179.078.375.005.563 0a8.3 8.3 0 0 0 1.65-.217c2.387-.546 4.662-2.146 5.645-4.53 1.272-3.081 1.135-7.093-1.115-9.686a8.35 8.35 0 0 0-3.143-2.239c-1.122-.461-2.359-.678-3.562-.679"/></g><path fill="#0f5f57" d="m177.969 33.073.401 1.222h1.286l-2.104-6.059h-1.387l-2.163 6.059h1.278l.409-1.222Zm-.342-1.039h-1.587l.793-2.368Zm4.076.1h1.562c1.119 0 1.837-.79 1.837-2.02 0-1.213-.693-1.878-1.963-1.878h-2.689v6.059h1.253Zm0-1.039v-1.82h1.169c.668 0 .977.29.977.906 0 .623-.309.914-.977.914Zm5.379-2.859h-1.253v6.059h1.253Z"/><path d="m177.765 25.966-.414 1.196c1.554.643 4.848 1.007 4.848-1.484 0-.296-.043-.59-.155-.866-.499-1.22-2.006-.992-2.826-1.777-.303-.29-.275-.727.122-.92.333-.163.805-.134 1.16-.076.334.056.63.211.953.3l.415-1.155c-1.403-.744-4.382-.718-4.393 1.443-.001.255-.001.498.087.742.493 1.362 2.194.999 2.963 1.979.341.434-.026.883-.481.993-.775.189-1.574-.083-2.279-.375m-18.936-4.988v6.555h1.492v-2.226c.919 0 1.981.006 2.776-.526 1.046-.7 1.134-2.59.124-3.37-1.209-.932-3.007-.542-4.392-.433m5.47 0v6.555h1.491v-2.226c.919 0 1.982.006 2.777-.526 1.045-.7 1.134-2.59.124-3.37-1.209-.932-3.007-.542-4.392-.433m5.469 0v6.555h1.492V25.1c.209 0 .548-.064.734.043.79.452.877 1.758 1.53 2.324.118.102.326.066.471.066h1.201c-.301-1.04-1.143-1.82-1.616-2.762 1.493-.287 1.584-2.557.539-3.36-1.203-.923-2.975-.541-4.351-.433m5.677-.083v6.638h1.492v-6.638Zm7.21 0v6.638h4.434v-1.278h-2.942v-1.567h2.652v-1.237h-2.652v-1.278h2.942v-1.278Zm-22.334 3.134V22.09c.503 0 1.106-.084 1.574.14.554.265.687 1.172.162 1.546-.476.339-1.185.252-1.736.252m5.469 0V22.09c.504 0 1.106-.084 1.575.14.553.265.687 1.172.162 1.546-.477.339-1.186.252-1.737.252m5.47-.124V22.09c.521 0 1.14-.08 1.616.182.523.287.548 1.109.041 1.426-.465.29-1.135.206-1.657.206m-24.911-3.154c.391 1.617.536 3.378.745 5.03l2.611-.372c-.412.67-.827 1.34-1.219 2.02-.161.28-.451.619-.475.949-.042.588 1.167 1.298 1.648.89.274-.231.455-.665.632-.973.343-.594.711-1.17 1.04-1.773.138-.254.391-.954.696-1.022.303-.068.741.127 1.034.198 1.102.264 2.19.749 3.15 1.343.474.294 1.194.935 1.671.264.159-.224.104-.49.069-.741-.074-.537-.166-1.071-.237-1.608-.288-2.176-.659-4.34-.953-6.514-.083-.614-.079-1.403-.308-1.98a.65.65 0 0 0-.598-.391c-.499 0-.759.527-1.057.845a13.5 13.5 0 0 1-2.11 1.843c-1.93 1.356-4.05 1.703-6.339 1.992m8.867-.908.456 4.33h-3.149c.424-1.009 1.143-1.96 1.722-2.887.284-.453.561-1.096.971-1.443m-9.406 6.02c-.127-1.598-.41-3.249-.704-4.824-1.423.448-1.847 2.347-1.189 3.546.399.727 1.097 1.124 1.893 1.278"/><path fill="#0f5f57" d="M192.852 16.533A18.45 18.45 0 0 0 181.17 5.954a19.24 19.24 0 0 0-10.834-.123 15.8 15.8 0 0 0-8.292 6.392 11 11 0 0 0-2.293-2.18 12.23 12.23 0 0 0-7.72-2.057 9.96 9.96 0 0 0-5.728 3.272 10.27 10.27 0 0 0-2.489 5.201 8.8 8.8 0 0 0-3.363.57 8.2 8.2 0 0 0-3.736 2.776 9.04 9.04 0 0 0-1.743 4.313 12.32 12.32 0 0 0 2.017 8.646 14 14 0 0 0 2.067 2.331c.507.47 1.089.854 1.718 1.139a.9.9 0 0 0 1.244-.347.84.84 0 0 0-.274-.94 6 6 0 0 1-1.716-1.463 11 11 0 0 1-1.246-1.833 10.6 10.6 0 0 1-1.119-7.087 7.8 7.8 0 0 1 1.617-3.792 6.7 6.7 0 0 1 2.116-1.76 7 7 0 0 1 2.691-.791c1.01-.11 2.029-.11 3.039 0a.7.7 0 0 0 .821-.57.67.67 0 0 0-.646-.745 20 20 0 0 0-2.017-.395 9.15 9.15 0 0 1 2.487-3.744 7.48 7.48 0 0 1 4.509-2.079 8.8 8.8 0 0 1 3.711.396c1.256.361 2.437.94 3.486 1.708a5.59 5.59 0 0 1 2.493 4.164.81.81 0 0 0 .357.825.83.83 0 0 0 .902 0 .81.81 0 0 0 .357-.825 6.4 6.4 0 0 0-.771-3.568.55.55 0 0 0 .249-.223 13.98 13.98 0 0 1 7.822-5.426 16.6 16.6 0 0 1 9.488.668 16.23 16.23 0 0 1 9.961 9.143 19.95 19.95 0 0 1 1.194 13.878 13 13 0 0 1-1.194 2.824 4.96 4.96 0 0 1-2.064 1.908.84.84 0 0 0-.376 1.088.85.85 0 0 0 1.095.374 6.9 6.9 0 0 0 2.367-1.806 12 12 0 0 0 1.965-3.745 21.6 21.6 0 0 0-.472-15.538"/><g fill="none"><path fill="#0f5f57" d="M36.964 17.826v13.667a2.103 2.103 0 0 1-2.102 2.102H14.887a2.103 2.103 0 0 1-2.102-2.102V17.825Z"/><path fill="#178f84" d="M14.887 33.595h2.103l15.77-15.77H12.784v13.668a2.103 2.103 0 0 0 2.102 2.102"/><path fill="#78eb7b" d="M25.925 25.712a5.25 5.25 0 0 0-2.289-4.342l-2.967 4.342 3.37 4.033a5.24 5.24 0 0 0 1.886-4.033"/><path fill="#ffbfc5" d="M23.636 21.37a5.256 5.256 0 0 0-8.223 4.342h5.257Z"/><path fill="#ffef5e" d="M15.413 25.712a5.257 5.257 0 0 0 8.625 4.033l-3.368-4.033Z"/><path fill="#fff" d="M36.964 17.3h-24.18v-3.154a2.104 2.104 0 0 1 2.103-2.101h19.975a2.103 2.103 0 0 1 2.102 2.102Z"/><path stroke="#191919" stroke-linecap="round" stroke-linejoin="round" d="M34.862 12.048H14.887a2.103 2.103 0 0 0-2.102 2.102v17.872c0 1.162.942 2.103 2.102 2.103h19.975a2.103 2.103 0 0 0 2.102-2.103v-17.87a2.1 2.1 0 0 0-2.102-2.104m-22.077 5.257h24.18"/><path stroke="#191919" d="M22.772 14.935a.264.264 0 1 1 0-.525"/><path stroke="#191919" d="M22.771 14.935a.264.264 0 1 0 0-.525"/><path stroke="#191919" stroke-linecap="round" stroke-linejoin="round" d="M20.67 30.972a5.256 5.256 0 1 0 0-10.513 5.256 5.256 0 0 0 0 10.513"/><path stroke="#191919" stroke-linecap="round" stroke-linejoin="round" d="m23.635 21.376-2.965 4.339 3.368 4.033m-3.368-4.033h-5.258m12.617-4.205h6.307m-6.307 3.154h6.307m-6.307 3.153h6.307"/><path stroke="#191919" d="M16.465 14.94a.264.264 0 0 1 0-.526m0 .526a.264.264 0 0 0 0-.526m3.153.53a.264.264 0 1 1 0-.527m0 .527a.264.264 0 0 0 0-.527"/><path fill="#000" d="M21.095 40.887h-2.352l-.371 1.062H16.86l2.16-5.832h1.793l2.16 5.832h-1.511Zm-1.977-1.082h1.598l-.797-2.32Zm4.629-3.688h2.496q1.113 0 1.707.496.597.492.598 1.407 0 .918-.598 1.414-.594.492-1.707.492h-.992v2.023h-1.504Zm1.504 1.09v1.629h.832q.438 0 .676-.21.238-.216.238-.606t-.238-.602q-.239-.21-.676-.21Zm4.36-1.09h2.495q1.113 0 1.707.496.598.492.598 1.407 0 .918-.598 1.414-.594.492-1.707.492h-.992v2.023H29.61Zm1.503 1.09v1.629h.832q.438 0 .676-.21.238-.216.238-.606t-.238-.602q-.238-.21-.676-.21Z" opacity=".876"/></g></svg>
